<svg width="1362" height="646" viewBox="0 0 1362 646" fill="none" xmlns="http://www.w3.org/2000/svg">
<path d="M455.948 169.165C379.959 171.255 314.125 204.573 277.598 253.051C245.146 235.041 204.776 232.402 168.671 249.483C122.579 271.294 96.9461 318.864 100.831 366.835C89.8096 368.566 78.8303 371.881 68.231 376.885C8.73159 405.051 -16.6686 476.1 11.4764 535.599C39.6215 595.099 110.691 620.499 170.191 592.354C197.301 579.517 217.338 557.769 228.444 532.263C260.242 582.219 324.999 601.855 379.917 575.864C409.962 561.654 431.308 536.507 441.443 507.433C449.255 507.898 457.194 508.046 465.217 507.813C583.097 504.583 676.59 426.144 674.014 332.609C671.481 239.116 573.828 165.913 455.948 169.165Z" fill="url(#paint0_linear_23_735)"/>
<path d="M724.428 550.191H1215.52C1218.67 543.286 1221.2 536.065 1222.99 528.591C1234.02 530.386 1245.46 530.66 1257.09 529.203C1322.4 521.011 1368.7 461.406 1360.51 396.1C1352.32 330.795 1292.71 284.491 1227.41 292.684C1197.64 296.421 1171.81 310.842 1153.32 331.597C1138.69 274.23 1083.28 235.38 1023 242.939C990.022 247.077 961.898 264.328 943.191 288.778C935.907 285.885 928.433 283.288 920.726 281.008C807.702 247.331 694.425 292.705 667.695 382.355C650.191 441.031 674.135 504.141 724.428 550.191Z" fill="url(#paint1_linear_23_735)"/>
<path d="M1074.44 70.711C976.6 27.6594 872.867 30.4042 797.279 70.0564C766.874 27.6383 717.151 0 660.966 0C589.242 0 528.053 45.0363 504.11 108.378C489.056 103.944 473.115 101.559 456.624 101.559C364.039 101.559 289 176.598 289 269.183C289 361.768 364.039 436.808 456.624 436.808C498.81 436.808 537.365 421.225 566.84 395.487C577.207 478.107 647.707 542.04 733.155 542.04C779.881 542.04 822.151 522.911 852.555 492.063C862.204 497.363 872.191 502.303 882.537 506.843C1034.35 573.648 1200.37 530.174 1253.36 409.739C1306.36 289.305 1226.25 137.516 1074.44 70.711Z" fill="#FEE9D8"/>
<path d="M450.12 565.687C435.024 565.687 421.236 564.441 408.821 561.95C380.043 556.164 360.048 543.876 349.385 525.443C338.744 507.011 338.089 483.553 347.485 455.725C356.522 428.952 374.427 399.245 400.692 367.468C426.937 335.713 460.234 303.45 499.654 271.589C540.446 238.609 586.053 207.508 635.185 179.131C684.317 150.753 734.062 126.831 783.005 107.976C830.3 89.776 874.872 77.0654 915.516 70.2033C956.182 63.3412 990.851 62.6867 1018.55 68.2608C1047.33 74.046 1067.33 86.3344 1077.99 104.767C1088.63 123.2 1089.29 146.657 1079.89 174.486C1070.85 201.258 1052.95 230.966 1026.68 262.742C1000.44 294.498 967.14 326.76 927.72 358.621C886.928 391.601 841.322 422.702 792.189 451.059C743.057 479.436 693.312 503.358 644.37 522.213C597.074 540.413 552.502 553.124 511.858 559.986C489.393 563.787 468.764 565.687 450.12 565.687ZM977.254 65.7482C958.674 65.7482 938.108 67.6485 915.706 71.4279C832.306 85.511 732.88 124.129 635.776 180.186C538.673 236.244 455.504 303.028 401.621 368.228C375.44 399.899 357.62 429.459 348.625 456.105C339.356 483.574 339.968 506.715 350.42 524.831C360.892 542.968 380.613 555.045 409.032 560.767C436.586 566.299 471.108 565.645 511.626 558.804C595.026 544.721 694.452 506.103 791.556 450.045C888.659 393.987 971.828 327.204 1025.71 262.003C1051.89 230.332 1069.71 200.773 1078.71 174.127C1087.98 146.657 1087.36 123.516 1076.91 105.4C1066.44 87.2635 1046.72 75.1862 1018.3 69.4643C1005.99 66.994 992.287 65.7482 977.254 65.7482Z" fill="white"/>
<path d="M772.3 529.626C742.086 529.626 709.908 525.53 676.464 517.401C636.727 507.73 596.906 492.782 558.141 472.956C519.354 453.129 483.946 429.587 452.845 403.026C422.8 377.351 398.054 349.945 379.283 321.547C360.492 293.127 348.626 265.151 344.023 238.378C339.251 210.635 342.524 185.403 353.778 163.424C365.031 141.444 383.549 124.025 408.843 111.652C433.23 99.7224 462.874 92.9659 496.91 91.5724C530.925 90.1789 567.642 94.1905 606.027 103.544C645.764 113.214 685.585 128.163 724.35 147.989C763.137 167.815 798.545 191.357 829.646 217.919C859.692 243.594 884.437 271 903.208 299.398C921.999 327.818 933.865 355.794 938.468 382.566C943.24 410.31 939.967 435.541 928.713 457.521C917.46 479.501 898.943 496.92 873.648 509.293C849.261 521.222 819.617 527.979 785.581 529.372C781.211 529.541 776.777 529.626 772.3 529.626ZM510.254 92.4803C505.778 92.4803 501.344 92.5648 496.952 92.7548C427.339 95.6052 376.876 120.9 354.854 163.951C332.833 207.003 341.869 262.723 380.276 320.85C418.767 379.082 482.13 432.712 558.668 471.858C630.393 508.554 705.664 528.401 772.237 528.401C776.713 528.401 781.147 528.317 785.539 528.127C855.152 525.276 905.615 499.982 927.637 456.93C949.659 413.878 940.622 358.158 902.215 300.031C863.724 241.799 800.361 188.169 723.823 149.024C652.098 112.349 576.827 92.4803 510.254 92.4803Z" fill="white"/>
<path d="M363.66 167.711H183.451V606.06H363.66V167.711Z" fill="#B8DCE0"/>
<path d="M203.426 196.17V248.871H245.084V196.17H203.426ZM241.727 245.471H206.783V199.992H241.727V245.471Z" fill="white"/>
<path d="M241.727 199.992H206.783V245.472H241.727V199.992Z" fill="#FEE6D2"/>
<path d="M203.426 270.129V322.83H245.084V270.129H203.426ZM241.727 319.431H206.783V273.951H241.727V319.431Z" fill="white"/>
<path d="M241.727 273.954V278.092C226.039 284.11 214.807 293.653 206.783 303.788V273.954H241.727Z" fill="#FEE6D2"/>
<path d="M303.717 196.17V248.871H345.375V196.17H303.717ZM329.033 245.471H307.095V199.992H342.039V226.448C337.985 233.394 333.657 239.813 329.033 245.471Z" fill="white"/>
<path d="M342.018 199.992V226.448C337.985 233.395 333.657 239.793 329.012 245.472H307.074V199.992H342.018Z" fill="#DBEFF3"/>
<path d="M342.018 226.446V245.469H329.012C333.657 239.811 337.985 233.392 342.018 226.446Z" fill="#DBEFF3"/>
<path d="M303.717 270.129V322.83H345.375V270.129H303.717ZM342.018 319.431H307.074V273.951H342.018V319.431Z" fill="white"/>
<path d="M253.57 196.17V248.871H295.228V196.17H253.57ZM291.871 245.471H256.927V199.992H291.871V245.471Z" fill="white"/>
<path d="M291.871 199.992H256.928V245.472H291.871V199.992Z" fill="#DBEFF3"/>
<path d="M253.57 270.129V322.83H295.228V270.129H253.57ZM291.871 319.431H256.927V273.951H291.871V319.431Z" fill="white"/>
<path d="M241.725 278.094V319.435H206.781V303.79C214.805 293.634 226.037 284.111 241.725 278.094Z" fill="#DBEFF3"/>
<path d="M291.871 273.953H256.928V319.433H291.871V273.953Z" fill="#DBEFF3"/>
<path d="M342.018 273.953H307.074V319.433H342.018V273.953Z" fill="#DBEFF3"/>
<path d="M363.66 167.711H183.451V173.243H363.66V167.711Z" fill="#9DC4C6"/>
<path d="M363.66 167.711H183.451L191.876 91.1935H355.214L363.66 167.711Z" fill="#CDE0E4"/>
<path d="M225.532 108.991L205.98 117.795H245.084L225.532 108.991Z" fill="#BED2D6"/>
<path d="M244.852 117.796H206.213V156.73H244.852V117.796Z" fill="#BED2D6"/>
<path d="M241.918 156.731H208.854L210.437 149.046H240.335L241.918 156.731Z" fill="#BED2D6"/>
<path d="M240.438 119.95H210.604V149.045H240.438V119.95Z" fill="#DBEFF3"/>
<path d="M275.257 108.99L255.705 117.795H294.808L275.257 108.99Z" fill="#BED2D6"/>
<path d="M294.576 117.795H255.938V156.729H294.576V117.795Z" fill="#BED2D6"/>
<path d="M291.641 156.731H258.576L260.181 149.045H290.057L291.641 156.731Z" fill="#BED2D6"/>
<path d="M290.162 119.948H260.328V149.043H290.162V119.948Z" fill="#FEE6D2"/>
<path d="M324.979 108.99L305.428 117.795H344.531L324.979 108.99Z" fill="#BED2D6"/>
<path d="M344.299 117.795H305.66V156.729H344.299V117.795Z" fill="#BED2D6"/>
<path d="M341.364 156.731H308.32L309.904 149.045H339.78L341.364 156.731Z" fill="#BED2D6"/>
<path d="M339.885 119.948H310.051V149.043H339.885V119.948Z" fill="#DBEFF3"/>
<path d="M210.646 85.2579H199.604V100.988H210.646V85.2579Z" fill="#CDE0E4"/>
<path d="M255.705 85.2579H244.662V100.988H255.705V85.2579Z" fill="#CDE0E4"/>
<path d="M305.427 85.2579H294.385V100.988H305.427V85.2579Z" fill="#CDE0E4"/>
<path d="M350.465 85.2579H339.422V100.988H350.465V85.2579Z" fill="#CDE0E4"/>
<path d="M249.115 261.498C248.777 261.498 248.503 261.224 248.503 260.886C248.503 259.112 247.067 257.677 245.293 257.677C243.52 257.677 242.084 259.112 242.084 260.886C242.084 261.224 241.81 261.498 241.472 261.498C241.134 261.498 240.859 261.224 240.859 260.886C240.859 258.458 242.844 256.473 245.272 256.473C247.7 256.473 249.685 258.458 249.685 260.886C249.706 261.224 249.453 261.498 249.115 261.498Z" fill="#82BBC6"/>
<path d="M249.114 267.537C248.776 267.537 248.502 267.262 248.502 266.925V260.886C248.502 258.458 250.487 256.473 252.915 256.473C255.343 256.473 257.328 258.458 257.328 260.886C257.328 261.224 257.053 261.498 256.715 261.498C256.377 261.498 256.103 261.224 256.103 260.886C256.103 259.112 254.667 257.677 252.894 257.677C251.12 257.677 249.684 259.112 249.684 260.886V266.925C249.705 267.283 249.452 267.537 249.114 267.537Z" fill="#82BBC6"/>
<path d="M299.261 261.498C298.924 261.498 298.649 261.224 298.649 260.886C298.649 259.112 297.213 257.677 295.44 257.677C293.666 257.677 292.23 259.112 292.23 260.886C292.23 261.224 291.956 261.498 291.618 261.498C291.28 261.498 291.006 261.224 291.006 260.886C291.006 258.458 292.991 256.473 295.419 256.473C297.847 256.473 299.832 258.458 299.832 260.886C299.874 261.224 299.599 261.498 299.261 261.498Z" fill="#82BBC6"/>
<path d="M299.261 267.537C298.923 267.537 298.648 267.262 298.648 266.925V260.886C298.648 258.458 300.633 256.473 303.061 256.473C305.489 256.473 307.474 258.458 307.474 260.886C307.474 261.224 307.2 261.498 306.862 261.498C306.524 261.498 306.249 261.224 306.249 260.886C306.249 259.112 304.814 257.677 303.04 257.677C301.267 257.677 299.831 259.112 299.831 260.886V266.925C299.873 267.284 299.599 267.537 299.261 267.537Z" fill="#82BBC6"/>
<path d="M249.115 336.301C248.777 336.301 248.503 336.027 248.503 335.689C248.503 333.915 247.067 332.48 245.293 332.48C243.52 332.48 242.084 333.915 242.084 335.689C242.084 336.027 241.81 336.301 241.472 336.301C241.134 336.301 240.859 336.027 240.859 335.689C240.859 333.261 242.844 331.276 245.272 331.276C247.7 331.276 249.685 333.261 249.685 335.689C249.706 336.027 249.453 336.301 249.115 336.301Z" fill="#82BBC6"/>
<path d="M249.114 342.34C248.776 342.34 248.502 342.065 248.502 341.727V335.689C248.502 333.261 250.487 331.276 252.915 331.276C255.343 331.276 257.328 333.261 257.328 335.689C257.328 336.027 257.053 336.301 256.715 336.301C256.377 336.301 256.103 336.027 256.103 335.689C256.103 333.915 254.667 332.479 252.894 332.479C251.12 332.479 249.684 333.915 249.684 335.689V341.727C249.705 342.065 249.452 342.34 249.114 342.34Z" fill="#82BBC6"/>
<path d="M299.261 336.301C298.924 336.301 298.649 336.027 298.649 335.689C298.649 333.916 297.213 332.48 295.44 332.48C293.666 332.48 292.23 333.916 292.23 335.689C292.23 336.027 291.956 336.301 291.618 336.301C291.28 336.301 291.006 336.027 291.006 335.689C291.006 333.261 292.991 331.276 295.419 331.276C297.847 331.276 299.832 333.261 299.832 335.689C299.874 336.027 299.599 336.301 299.261 336.301Z" fill="#82BBC6"/>
<path d="M299.261 342.34C298.923 342.34 298.648 342.065 298.648 341.728V335.689C298.648 333.261 300.633 331.276 303.061 331.276C305.489 331.276 307.474 333.261 307.474 335.689C307.474 336.027 307.2 336.301 306.862 336.301C306.524 336.301 306.249 336.027 306.249 335.689C306.249 333.915 304.814 332.48 303.04 332.48C301.267 332.48 299.831 333.915 299.831 335.689V341.728C299.873 342.065 299.599 342.34 299.261 342.34Z" fill="#82BBC6"/>
<path d="M249.115 186.691C248.777 186.691 248.503 186.417 248.503 186.079C248.503 184.305 247.067 182.87 245.293 182.87C243.52 182.87 242.084 184.305 242.084 186.079C242.084 186.417 241.81 186.691 241.472 186.691C241.134 186.691 240.859 186.417 240.859 186.079C240.859 183.651 242.844 181.666 245.272 181.666C247.7 181.666 249.685 183.651 249.685 186.079C249.706 186.438 249.453 186.691 249.115 186.691Z" fill="#82BBC6"/>
<path d="M249.114 192.752C248.776 192.752 248.502 192.477 248.502 192.139V186.101C248.502 183.673 250.487 181.688 252.915 181.688C255.343 181.688 257.328 183.673 257.328 186.101C257.328 186.438 257.053 186.713 256.715 186.713C256.377 186.713 256.103 186.438 256.103 186.101C256.103 184.327 254.667 182.891 252.894 182.891C251.12 182.891 249.684 184.327 249.684 186.101V192.139C249.705 192.477 249.452 192.752 249.114 192.752Z" fill="#82BBC6"/>
<path d="M299.261 186.691C298.924 186.691 298.649 186.417 298.649 186.079C298.649 184.306 297.213 182.87 295.44 182.87C293.666 182.87 292.23 184.306 292.23 186.079C292.23 186.417 291.956 186.691 291.618 186.691C291.28 186.691 291.006 186.417 291.006 186.079C291.006 183.651 292.991 181.666 295.419 181.666C297.847 181.666 299.832 183.651 299.832 186.079C299.874 186.438 299.599 186.691 299.261 186.691Z" fill="#82BBC6"/>
<path d="M299.261 192.752C298.923 192.752 298.648 192.477 298.648 192.139V186.101C298.648 183.673 300.633 181.688 303.061 181.688C305.489 181.688 307.474 183.673 307.474 186.101C307.474 186.439 307.2 186.713 306.862 186.713C306.524 186.713 306.249 186.439 306.249 186.101C306.249 184.327 304.814 182.891 303.04 182.891C301.267 182.891 299.831 184.327 299.831 186.101V192.139C299.873 192.477 299.599 192.752 299.261 192.752Z" fill="#82BBC6"/>
<path d="M586.224 187.707H364.357V606.04H586.224V187.707Z" fill="#DBEFF3"/>
<path d="M586.223 185.934H363.977V193.767H586.223V185.934Z" fill="#90C6D1"/>
<path d="M594.226 190.114H355.236L363.999 173.328H585.464L594.226 190.114Z" fill="#BFD6DB"/>
<path d="M450.375 270.75H391.699V215.03H450.375V270.75ZM393.304 269.145H448.749V216.634H393.304V269.145Z" fill="#90C6D1"/>
<path d="M450.375 348.362H391.699V292.642H450.375V348.362ZM393.304 346.757H448.749V294.247H393.304V346.757Z" fill="#90C6D1"/>
<path d="M553.242 348.361H494.566V292.641H553.242V348.361ZM496.171 346.757H551.617V294.246H496.171V346.757Z" fill="#90C6D1"/>
<path d="M1038.82 477.374H1210.04V227.974L1038.82 227.974V477.374Z" fill="#B8DCE0"/>
<path d="M1038.16 235.243L1210.03 235.243V227.979L1038.16 227.979V235.243Z" fill="#9DC4C6"/>
<path d="M1038.82 227.989H1210.04L1201.32 157.067H1047.54L1038.82 227.989Z" fill="#DBEFF3"/>
<path d="M1047.56 157.061L1201.46 157.061V149.798L1047.56 149.798V157.061Z" fill="#B8DCE0"/>
<path d="M1071.16 217.758H1107.11V185.749H1071.16V217.758Z" fill="#82BBC6"/>
<path d="M1147.46 185.801C1152.56 183.901 1158.73 182.803 1165.34 182.803C1171.95 182.803 1178.11 183.901 1183.22 185.801H1147.46Z" fill="#82BBC6"/>
<path d="M1070.92 185.756C1076.03 183.856 1082.19 182.758 1088.8 182.758C1095.41 182.758 1101.57 183.856 1106.68 185.756H1070.92Z" fill="#82BBC6"/>
<path d="M1147.36 217.759H1183.32V185.75H1147.36V217.759Z" fill="#82BBC6"/>
<path d="M1150.63 214.458H1180V189.438H1150.63V214.458Z" fill="#DBEFF3"/>
<path d="M1147.36 286.712H1183.32V254.703H1147.36V286.712Z" fill="#9DC4C6"/>
<path d="M1150.64 283.411H1180.01V258.391H1150.64V283.411Z" fill="#FEE6D2"/>
<path d="M1069.18 286.712H1105.14V254.703H1069.18V286.712Z" fill="#9DC4C6"/>
<path d="M1072.45 283.411H1101.82V258.391H1072.45V283.411Z" fill="#FEE6D2"/>
<path d="M1147.36 340.14H1183.32V308.131H1147.36V340.14Z" fill="#9DC4C6"/>
<path d="M1150.64 336.839H1180.01V311.819H1150.64V336.839Z" fill="#DBEFF3"/>
<path d="M1069.18 340.14H1105.14V308.131H1069.18V340.14Z" fill="#9DC4C6"/>
<path d="M1101.85 311.833H1072.48V336.853H1101.85V311.833Z" fill="#FEE6D2"/>
<path d="M1072.48 316.075V336.852H1099.53C1099.53 336.852 1098.22 320.024 1078.07 317.384C1076.19 317.131 1074.32 316.688 1072.48 316.075Z" fill="#DBEFF3"/>
<path d="M1147.36 393.579H1183.32V361.57H1147.36V393.579Z" fill="#9DC4C6"/>
<path d="M1150.63 390.278H1180V365.258H1150.63V390.278Z" fill="#D6D3E4"/>
<path d="M1069.18 393.579H1105.14V361.57H1069.18V393.579Z" fill="#9DC4C6"/>
<path d="M1072.45 390.278H1101.82V365.258H1072.45V390.278Z" fill="#DBEFF3"/>
<path d="M1104.15 189.432H1074.78V214.452H1104.15V189.432Z" fill="#DBEFF3"/>
<path d="M1074.78 196.844V214.453H1104.15V201.954C1093.76 201.869 1083.48 200.602 1074.78 196.844Z" fill="#DBEFF3"/>
<path d="M1150.66 202.926V214.475H1180.03V206.283C1169.62 206.199 1159.36 205.375 1150.66 202.926Z" fill="#DBEFF3"/>
<path d="M798.673 480.35L1039.48 480.35V228.649L798.673 228.649V480.35Z" fill="#DBEFF3"/>
<path d="M985.051 295.624H1021.35V242.522H985.051V295.624Z" fill="#BFD6DB"/>
<path d="M1018.04 292.314V245.799H988.355V292.314H1018.04Z" fill="#FEE6D2"/>
<path d="M928.969 295.624H965.264V242.522H928.969V295.624Z" fill="#BFD6DB"/>
<path d="M961.961 292.314V245.799H932.275V292.314H961.961Z" fill="#FEE6D2"/>
<path d="M872.887 295.624H909.182V242.522H872.887V295.624Z" fill="#BFD6DB"/>
<path d="M905.879 292.319V245.805H876.193V292.319H905.879Z" fill="#DBEFF3"/>
<path d="M816.805 295.623H853.1V242.522H816.805V295.623Z" fill="#BFD6DB"/>
<path d="M849.799 292.319V245.805H820.112V292.319H849.799Z" fill="#DBEFF3"/>
<path d="M1021.34 312.76H985.045V365.862H1021.34V312.76Z" fill="#BFD6DB"/>
<path d="M1018.04 362.577V316.063H988.353V362.577H1018.04Z" fill="#FEE6D2"/>
<path d="M965.262 312.76H928.967V365.862H965.262V312.76Z" fill="#BFD6DB"/>
<path d="M961.959 362.577V316.063H932.273V362.577H961.959Z" fill="#FEE6D2"/>
<path d="M909.182 312.76H872.887V365.862H909.182V312.76Z" fill="#BFD6DB"/>
<path d="M905.877 362.577V316.063H876.191V362.577H905.877Z" fill="#FEE6D2"/>
<path d="M853.104 312.76H816.809V365.862H853.104V312.76Z" fill="#BFD6DB"/>
<path d="M849.797 362.581V316.067H820.111V362.581H849.797Z" fill="#DBEFF3"/>
<path d="M1021.34 312.76V321.86C1020.26 322.135 1019.17 322.367 1018.05 322.599C1017.81 322.642 1017.58 322.684 1017.35 322.726C1012.98 323.528 1008.27 323.972 1003.37 323.972H1003.29C998.03 323.972 993.005 323.465 988.36 322.515C987.241 322.283 986.143 322.05 985.066 321.776V312.76H1021.34Z" fill="#BFD6DB"/>
<path d="M965.262 312.76V322.093C964.185 322.346 963.087 322.578 961.968 322.768C961.947 322.768 961.926 322.768 961.884 322.789C957.619 323.549 953.037 323.972 948.265 323.972C948.117 323.972 947.97 323.972 947.801 323.972C942.311 323.951 937.053 323.359 932.261 322.325C931.142 322.071 930.022 321.818 928.967 321.522V312.76H965.262Z" fill="#BFD6DB"/>
<path d="M909.182 312.762V322.326C908.105 322.559 907.007 322.77 905.888 322.96C905.804 322.981 905.698 323.002 905.614 323.002C901.687 323.635 897.527 323.973 893.199 323.973C892.65 323.973 892.101 323.973 891.552 323.952C886.105 323.847 880.932 323.192 876.202 322.094C875.083 321.841 873.985 321.545 872.908 321.228V313.247C872.908 312.973 873.141 312.741 873.415 312.741H909.182V312.762Z" fill="#BFD6DB"/>
<path d="M853.104 312.76V322.515C852.027 322.726 850.929 322.916 849.81 323.106C849.641 323.127 849.494 323.148 849.325 323.169C845.756 323.697 841.998 323.972 838.113 323.972C837.163 323.972 836.213 323.951 835.263 323.929C829.879 323.739 824.769 323.022 820.124 321.86C819.005 321.586 817.886 321.269 816.83 320.952V312.781H853.104V312.76Z" fill="#BFD6DB"/>
<path d="M798.659 228.639L1039.15 228.639V142.219L798.659 142.219V228.639Z" fill="#B8DCE0"/>
<path d="M999.975 178.18H951.982V227.988H999.975V178.18Z" fill="#BED2D6"/>
<path d="M993.135 178.18H958.824V227.988H993.135V178.18Z" fill="#9DC4C6"/>
<path d="M958.824 167.939V179.172C962.181 182.719 968.6 185.105 975.969 185.105C983.338 185.105 989.777 182.719 993.113 179.172V167.939C990.495 165.173 985.998 163.104 980.635 162.344C979.136 162.133 977.573 162.006 975.969 162.006C974.364 162.006 972.802 162.112 971.303 162.344C965.94 163.104 961.442 165.173 958.824 167.939Z" fill="#9DC4C6"/>
<path d="M964.594 213.143H987.355V173.554H964.594V213.143Z" fill="#FEE6D2"/>
<path d="M993.894 222.203H958.105V192.453H993.429L993.894 222.203ZM959.309 221H992.669L992.247 193.657H959.33V221H959.309Z" fill="white"/>
<path d="M988.469 221.717L987.266 221.696C987.392 210.865 987.498 194.396 987.287 193.34C987.287 193.34 987.308 193.403 987.329 193.467L988.385 192.876C988.49 193.066 988.786 193.615 988.469 221.717Z" fill="white"/>
<path d="M982.514 221.717L981.311 221.696C981.437 210.865 981.543 194.396 981.332 193.34C981.332 193.34 981.353 193.403 981.374 193.467L982.43 192.876C982.556 193.066 982.852 193.615 982.514 221.717Z" fill="white"/>
<path d="M976.582 221.717L975.379 221.696C975.506 210.865 975.611 194.396 975.4 193.34C975.4 193.34 975.421 193.403 975.442 193.467L976.498 192.876C976.603 193.066 976.92 193.615 976.582 221.717Z" fill="white"/>
<path d="M970.649 221.717L969.445 221.696C969.572 210.865 969.678 194.396 969.466 193.34C969.466 193.34 969.487 193.403 969.509 193.467L970.564 192.876C970.67 193.066 970.987 193.615 970.649 221.717Z" fill="white"/>
<path d="M964.715 221.717L963.512 221.696C963.638 210.865 963.744 194.396 963.533 193.34C963.533 193.34 963.554 193.403 963.575 193.467L964.631 192.875C964.736 193.066 965.032 193.614 964.715 221.717Z" fill="white"/>
<path d="M941.91 178.18H893.918V227.988H941.91V178.18Z" fill="#BED2D6"/>
<path d="M935.07 178.18H900.76V227.988H935.07V178.18Z" fill="#9DC4C6"/>
<path d="M900.76 167.939V179.172C904.117 182.719 910.536 185.105 917.904 185.105C925.273 185.105 931.713 182.719 935.049 179.172V167.939C932.431 165.173 927.934 163.104 922.571 162.344C921.072 162.133 919.509 162.006 917.904 162.006C916.3 162.006 914.737 162.112 913.238 162.344C907.896 163.104 903.378 165.173 900.76 167.939Z" fill="#9DC4C6"/>
<path d="M906.538 213.143H929.299V173.554H906.538V213.143Z" fill="#DBEFF3"/>
<path d="M935.829 222.203H900.041V192.453H935.365L935.829 222.203ZM901.266 221H934.626L934.204 193.657H901.287V221H901.266Z" fill="white"/>
<path d="M930.403 221.717L929.199 221.696C929.326 210.865 929.431 194.396 929.22 193.34C929.22 193.34 929.241 193.403 929.262 193.467L930.318 192.876C930.424 193.066 930.741 193.615 930.403 221.717Z" fill="white"/>
<path d="M924.469 221.717L923.266 221.696C923.392 210.865 923.498 194.396 923.287 193.34C923.287 193.34 923.308 193.403 923.329 193.467L924.385 192.876C924.49 193.066 924.786 193.615 924.469 221.717Z" fill="white"/>
<path d="M918.516 221.717L917.312 221.696C917.439 210.865 917.545 194.396 917.334 193.34C917.334 193.34 917.355 193.403 917.376 193.467L918.431 192.876C918.558 193.066 918.854 193.615 918.516 221.717Z" fill="white"/>
<path d="M912.582 221.717L911.379 221.696C911.506 210.865 911.611 194.396 911.4 193.34C911.4 193.34 911.421 193.403 911.442 193.467L912.498 192.876C912.603 193.066 912.92 193.615 912.582 221.717Z" fill="white"/>
<path d="M906.649 221.717L905.445 221.696C905.572 210.865 905.678 194.396 905.466 193.34C905.466 193.34 905.487 193.403 905.509 193.467L906.564 192.875C906.67 193.066 906.987 193.614 906.649 221.717Z" fill="white"/>
<path d="M883.846 178.18H835.854V227.988H883.846V178.18Z" fill="#BED2D6"/>
<path d="M877.025 178.18H842.715V227.988H877.025V178.18Z" fill="#9DC4C6"/>
<path d="M842.715 167.939V179.172C846.072 182.719 852.491 185.105 859.859 185.105C867.228 185.105 873.668 182.719 877.004 179.172V167.939C874.386 165.173 869.889 163.104 864.526 162.344C863.027 162.133 861.464 162.006 859.859 162.006C858.255 162.006 856.692 162.112 855.193 162.344C849.83 163.104 845.333 165.173 842.715 167.939Z" fill="#9DC4C6"/>
<path d="M848.481 213.143H871.242V173.554H848.481V213.143Z" fill="#DBEFF3"/>
<path d="M877.765 222.203H841.977V192.453H877.3L877.765 222.203ZM843.201 221H876.561L876.139 193.657H843.222V221H843.201Z" fill="white"/>
<path d="M872.34 221.717L871.137 221.696C871.263 210.865 871.369 194.396 871.158 193.34C871.158 193.34 871.179 193.403 871.2 193.467L872.256 192.876C872.361 193.066 872.678 193.615 872.34 221.717Z" fill="white"/>
<path d="M866.407 221.717L865.203 221.696C865.33 210.865 865.435 194.396 865.224 193.34C865.224 193.34 865.245 193.403 865.266 193.467L866.322 192.876C866.428 193.066 866.744 193.615 866.407 221.717Z" fill="white"/>
<path d="M860.473 221.717L859.27 221.696C859.396 210.865 859.502 194.396 859.291 193.34C859.291 193.34 859.312 193.403 859.333 193.467L860.389 192.876C860.494 193.066 860.79 193.615 860.473 221.717Z" fill="white"/>
<path d="M854.52 221.717L853.316 221.696C853.443 210.865 853.549 194.396 853.338 193.34C853.338 193.34 853.359 193.403 853.38 193.467L854.435 192.876C854.562 193.066 854.858 193.615 854.52 221.717Z" fill="white"/>
<path d="M848.586 221.717L847.383 221.696C847.509 210.865 847.615 194.396 847.404 193.34C847.404 193.34 847.425 193.403 847.446 193.467L848.502 192.875C848.607 193.066 848.924 193.614 848.586 221.717Z" fill="white"/>
<path d="M798.671 480.356L1040.47 480.356V378.417H798.671V480.356Z" fill="#B8DCE0"/>
<path d="M933.262 467.481H1020.36V396.221H933.262V467.481Z" fill="#CDE0E4"/>
<path d="M937.696 463.848H1015.92V399.852H937.696V463.848Z" fill="#CDE0E4"/>
<path d="M925.631 429.877H1027.32L1020.35 396.221H932.598L925.631 429.877Z" fill="#DBEFF3"/>
<path d="M1017.05 432.833C1017.05 434.48 1018.38 435.811 1020.03 435.811C1021.68 435.811 1023.01 434.48 1023.01 432.833C1023.01 431.187 1021.68 429.856 1020.03 429.856C1018.38 429.877 1017.05 431.208 1017.05 432.833Z" fill="white"/>
<path d="M1002.53 432.833C1002.53 434.48 1003.86 435.811 1005.5 435.811C1007.15 435.811 1008.48 434.48 1008.48 432.833C1008.48 431.187 1007.15 429.856 1005.5 429.856C1003.86 429.877 1002.53 431.208 1002.53 432.833Z" fill="white"/>
<path d="M988.023 432.833C988.023 434.48 989.354 435.811 991 435.811C992.647 435.811 993.978 434.48 993.978 432.833C993.978 431.187 992.647 429.856 991 429.856C989.354 429.877 988.023 431.208 988.023 432.833Z" fill="white"/>
<path d="M973.496 432.833C973.496 434.48 974.826 435.811 976.473 435.811C978.12 435.811 979.45 434.48 979.45 432.833C979.45 431.187 978.12 429.856 976.473 429.856C974.826 429.856 973.496 431.208 973.496 432.833Z" fill="white"/>
<path d="M958.99 432.833C958.99 434.48 960.32 435.811 961.967 435.811C963.614 435.811 964.944 434.48 964.944 432.833C964.944 431.187 963.614 429.856 961.967 429.856C960.32 429.877 958.99 431.208 958.99 432.833Z" fill="white"/>
<path d="M944.486 432.833C944.486 434.48 945.816 435.811 947.463 435.811C949.11 435.811 950.441 434.48 950.441 432.833C950.441 431.187 949.11 429.856 947.463 429.856C945.816 429.877 944.486 431.208 944.486 432.833Z" fill="white"/>
<path d="M929.959 432.833C929.959 434.48 931.289 435.81 932.936 435.81C934.583 435.81 935.913 434.48 935.913 432.833C935.913 431.186 934.583 429.856 932.936 429.856C931.289 429.856 929.959 431.207 929.959 432.833Z" fill="white"/>
<path d="M819.77 467.481H906.865V396.221H819.77V467.481Z" fill="#CDE0E4"/>
<path d="M824.204 463.848H902.432V399.852H824.204V463.848Z" fill="#CDE0E4"/>
<path d="M812.164 429.877H913.828L906.861 396.221H819.111L812.164 429.877Z" fill="#DBEFF3"/>
<path d="M903.566 432.833C903.566 434.48 904.897 435.811 906.543 435.811C908.19 435.811 909.521 434.48 909.521 432.833C909.521 431.187 908.19 429.856 906.543 429.856C904.897 429.877 903.566 431.208 903.566 432.833Z" fill="white"/>
<path d="M889.061 432.833C889.061 434.48 890.391 435.811 892.038 435.811C893.685 435.811 895.015 434.48 895.015 432.833C895.015 431.187 893.685 429.856 892.038 429.856C890.391 429.856 889.061 431.208 889.061 432.833Z" fill="white"/>
<path d="M874.535 432.833C874.535 434.48 875.865 435.811 877.512 435.811C879.159 435.811 880.489 434.48 880.489 432.833C880.489 431.187 879.159 429.856 877.512 429.856C875.865 429.877 874.535 431.208 874.535 432.833Z" fill="white"/>
<path d="M860.029 432.833C860.029 434.48 861.359 435.811 863.006 435.811C864.653 435.811 865.983 434.48 865.983 432.833C865.983 431.187 864.653 429.856 863.006 429.856C861.359 429.856 860.029 431.208 860.029 432.833Z" fill="white"/>
<path d="M845.502 432.833C845.502 434.48 846.832 435.811 848.479 435.811C850.126 435.811 851.456 434.48 851.456 432.833C851.456 431.187 850.126 429.856 848.479 429.856C846.832 429.877 845.502 431.208 845.502 432.833Z" fill="white"/>
<path d="M830.996 432.833C830.996 434.48 832.326 435.811 833.973 435.811C835.62 435.811 836.95 434.48 836.95 432.833C836.95 431.187 835.62 429.856 833.973 429.856C832.326 429.877 830.996 431.208 830.996 432.833Z" fill="white"/>
<path d="M816.471 432.833C816.471 434.48 817.801 435.81 819.448 435.81C821.095 435.81 822.425 434.48 822.425 432.833C822.425 431.186 821.095 429.856 819.448 429.856C817.801 429.877 816.471 431.207 816.471 432.833Z" fill="white"/>
<path opacity="0.4" d="M947 247.349V291.604H961.062V247.349H947Z" fill="white"/>
<path opacity="0.4" d="M890.719 247.337V291.592H904.781V247.337H890.719Z" fill="white"/>
<path opacity="0.4" d="M834.426 247.337V291.592H848.488V247.337H834.426Z" fill="white"/>
<path opacity="0.4" d="M1002.46 247.349V291.604H1016.53V247.349H1002.46Z" fill="white"/>
<path opacity="0.4" d="M961.884 322.79V361.745H947.822V323.972C947.97 323.972 948.118 323.972 948.287 323.972C953.037 323.993 957.619 323.571 961.884 322.79Z" fill="white"/>
<path opacity="0.4" d="M905.593 323.002V361.747H891.531V323.953C892.08 323.974 892.629 323.974 893.178 323.974C897.507 323.995 901.666 323.636 905.593 323.002Z" fill="white"/>
<path opacity="0.4" d="M849.304 323.19V361.765H835.242V323.95C836.192 323.992 837.142 323.992 838.093 323.992C841.978 323.992 845.736 323.697 849.304 323.19Z" fill="white"/>
<path opacity="0.4" d="M1017.35 322.725V361.744H1003.29V323.971H1003.37C1008.27 323.992 1012.98 323.549 1017.35 322.725Z" fill="white"/>
<path d="M200.817 479.258C203.652 479.258 205.951 476.959 205.951 474.123C205.951 471.287 203.652 468.989 200.817 468.989C197.981 468.989 195.682 471.287 195.682 474.123C195.682 476.959 197.981 479.258 200.817 479.258Z" fill="white"/>
<path d="M195.682 388.541C198.518 388.541 200.817 386.625 200.817 384.262C200.817 381.898 198.518 379.983 195.682 379.983C192.846 379.983 190.547 381.898 190.547 384.262C190.547 386.625 192.846 388.541 195.682 388.541Z" fill="white"/>
<path d="M492.666 586.869H296.896C296.453 586.869 296.094 586.51 296.094 586.066C296.094 585.623 296.453 585.264 296.896 585.264H492.666C493.109 585.264 493.468 585.623 493.468 586.066C493.468 586.51 493.109 586.869 492.666 586.869Z" fill="white"/>
<path d="M379.093 628.229H183.323C182.985 628.229 182.711 627.955 182.711 627.617C182.711 627.279 182.985 627.005 183.323 627.005H379.093C379.431 627.005 379.705 627.279 379.705 627.617C379.705 627.955 379.431 628.229 379.093 628.229Z" fill="#9DC4C6"/>
<path d="M759.61 623.079H563.841C563.503 623.079 563.229 622.804 563.229 622.466C563.229 622.129 563.503 621.854 563.841 621.854H759.61C759.948 621.854 760.223 622.129 760.223 622.466C760.223 622.825 759.948 623.079 759.61 623.079Z" fill="#9DC4C6"/>
<path d="M792.653 612.331H596.884C596.546 612.331 596.271 612.056 596.271 611.719C596.271 611.381 596.546 611.106 596.884 611.106H792.653C792.991 611.106 793.266 611.381 793.266 611.719C793.245 612.056 792.97 612.331 792.653 612.331Z" fill="#9DC4C6"/>
<path d="M441.507 616.005H245.737C245.4 616.005 245.125 615.73 245.125 615.392C245.125 615.054 245.4 614.78 245.737 614.78H441.507C441.845 614.78 442.119 615.054 442.119 615.392C442.098 615.73 441.824 616.005 441.507 616.005Z" fill="#9DC4C6"/>
<path d="M473.093 373.785H277.323C276.985 373.785 276.711 373.511 276.711 373.173C276.711 372.835 276.985 372.561 277.323 372.561H473.093C473.431 372.561 473.705 372.835 473.705 373.173C473.684 373.511 473.431 373.785 473.093 373.785Z" fill="white"/>
<path d="M427.403 383.559H231.634C231.296 383.559 231.021 383.284 231.021 382.947C231.021 382.609 231.296 382.334 231.634 382.334H427.403C427.741 382.334 428.016 382.609 428.016 382.947C428.016 383.284 427.741 383.559 427.403 383.559Z" fill="white"/>
<path d="M968.936 552.746C915.961 498.188 876.604 444.136 855.131 396.418C833.046 347.37 831.399 308.119 850.338 282.867C863.112 265.828 884.438 256.031 913.723 253.75C941.889 251.554 976.242 256.347 1015.79 268.045C1055.29 279.721 1098.05 297.689 1142.81 321.421C1189.16 345.998 1235.67 375.726 1281.04 409.783L1280.33 410.754C1190.63 343.464 1096.57 293.191 1015.45 269.227C976.051 257.593 941.847 252.779 913.828 254.975C884.923 257.234 863.894 266.883 851.331 283.627C832.666 308.499 834.376 347.328 856.271 395.953C877.702 443.545 916.974 497.47 969.844 551.944L968.936 552.746Z" fill="white"/>
<path d="M319.945 419.048C314.898 419.048 310.781 414.931 310.781 409.885C310.781 404.839 314.898 400.721 319.945 400.721C324.991 400.721 329.108 404.839 329.108 409.885C329.129 414.931 325.012 419.048 319.945 419.048ZM319.945 401.904C315.553 401.904 311.985 405.472 311.985 409.864C311.985 414.255 315.553 417.824 319.945 417.824C324.336 417.824 327.905 414.255 327.905 409.864C327.905 405.493 324.336 401.904 319.945 401.904Z" fill="white"/>
<path d="M466.772 337.698C472.859 337.698 477.793 332.763 477.793 326.676C477.793 320.589 472.859 315.655 466.772 315.655C460.685 315.655 455.75 320.589 455.75 326.676C455.75 332.763 460.685 337.698 466.772 337.698Z" fill="white"/>
<path d="M92.1887 604.095L351.406 605.636C390.615 587.9 428.979 559.629 421.399 518.034C407.041 439.321 333.332 406.383 270.645 476.735C301.45 423.211 309.009 337.551 217.881 350.579C156.798 359.299 147.444 415.652 150.865 463.053C137.119 428.532 84.841 418.101 50.4251 440.736C-35.2558 497.068 20.4009 573.1 92.1887 604.095Z" fill="#DBEFF3"/>
<path d="M66.6186 501.69C65.5207 501.69 64.3594 501.542 63.1348 501.268C58.9331 500.297 54.6469 497.763 51.0575 494.131C43.6676 486.636 46.138 472.489 46.2435 471.898L46.2858 471.624L46.5603 471.582C47.1515 471.476 61.3401 469.217 68.73 476.691C76.2044 484.25 78.2947 494.321 73.4384 499.135C71.7282 500.824 69.3634 501.69 66.6186 501.69ZM46.9825 472.342C46.6658 474.39 45.0823 486.953 51.6276 493.582C55.1115 497.108 59.2709 499.579 63.3037 500.508C67.2943 501.416 70.6725 500.74 72.8684 498.586C77.429 494.089 75.3176 484.524 68.1599 477.282C61.6357 470.653 49.0517 472.046 46.9825 472.342Z" fill="white"/>
<path d="M117.525 544.428C115.33 542.232 63.6424 490.524 60.623 486.681L61.2565 486.174C64.2547 489.975 117.568 543.309 118.096 543.837L117.525 544.428Z" fill="white"/>
<path d="M232.427 464.765L231.266 464.449C232.068 461.451 251.197 390.866 253.013 386.327L254.132 386.77C252.337 391.246 232.638 464.026 232.427 464.765Z" fill="white"/>
<path d="M91.7233 504.965C91.5122 504.965 91.301 504.965 91.0899 504.944C84.2701 504.416 79.3716 495.379 80.1739 484.78C80.9763 474.286 93.2436 466.854 93.7714 466.559L94.0248 466.411L94.2359 466.58C94.7004 466.96 105.722 476.165 104.941 486.659C104.561 491.769 102.914 496.477 100.338 499.919C97.8886 503.192 94.8482 504.965 91.7233 504.965ZM93.9403 467.382C92.1879 468.501 81.673 475.553 80.9763 484.822C80.2162 494.978 84.7768 503.635 91.1532 504.121C94.2148 504.353 97.2341 502.685 99.6833 499.412C102.175 496.097 103.737 491.537 104.117 486.575L104.518 486.596L104.117 486.575C104.835 477.306 95.5028 468.754 93.9403 467.382Z" fill="white"/>
<path d="M92.1553 485.71L89.6895 516.396L90.4892 516.46L92.9551 485.774L92.1553 485.71Z" fill="white"/>
<path d="M218.979 456.192C213.764 456.192 207.472 452.73 202.805 446.733C196.281 438.351 200.398 424.5 200.588 423.909L200.715 423.508L201.137 423.487C201.75 423.466 216.192 422.853 222.716 431.236C225.883 435.311 227.847 439.913 228.269 444.242C228.691 448.655 227.445 452.244 224.743 454.355C223.117 455.58 221.132 456.192 218.979 456.192ZM201.602 424.669C200.968 427.034 198.202 438.879 203.734 445.973C209.921 453.933 219 457.248 223.962 453.384C226.326 451.547 227.424 448.338 227.044 444.326C226.664 440.23 224.764 435.838 221.745 431.953C216.213 424.838 204.051 424.648 201.602 424.669Z" fill="white"/>
<path d="M213.205 438.642L212.252 439.378L231.067 463.744L232.02 463.008L213.205 438.642Z" fill="white"/>
<path d="M254.029 410.457C251.748 410.457 249.363 409.739 247.082 408.346C241.825 405.094 238.51 398.95 238.426 392.341C238.299 382.27 245.33 371.988 258.273 363.352C255.676 358.812 252.34 355.012 248.349 352.056L249.067 351.085C253.184 354.125 256.626 358.031 259.286 362.697C261.883 361.008 264.755 359.361 267.816 357.799L268.365 358.876C265.304 360.438 262.453 362.085 259.877 363.774C262.77 369.158 264.734 375.619 265.705 382.946C268.07 400.513 262.876 406.741 259.561 408.895C257.914 409.929 256.014 410.457 254.029 410.457ZM258.864 364.408C246.343 372.811 239.523 382.713 239.65 392.32C239.735 398.528 242.838 404.271 247.737 407.311C251.58 409.697 255.76 409.887 258.927 407.818C261.989 405.833 266.803 399.964 264.522 383.051C263.551 375.915 261.651 369.644 258.864 364.408Z" fill="white"/>
<path d="M289.203 605.91L289.013 604.727C318.361 599.892 340.996 594.255 358.182 587.541C378.431 579.602 391.289 569.91 396.357 558.699C401.192 548.057 399.228 535.579 390.571 521.623C382.21 508.173 369.542 499.432 354.91 496.982C340.51 494.575 326.026 498.629 314.117 508.342C313.885 508.532 313.547 508.511 313.315 508.321C313.104 508.11 313.062 507.772 313.231 507.518C321.676 495.884 322.141 480.957 314.392 470.358C303.349 455.282 289.815 447.787 274.17 448.082C247.798 448.589 220.561 471.329 206.415 492.253C206.288 492.443 206.035 492.549 205.802 492.506C205.57 492.464 205.38 492.274 205.317 492.042C202.53 479.5 191.761 468.183 179.135 464.509C166.699 460.877 153.756 464.974 142.713 476.016C131.396 487.354 127.807 501.205 132.051 517.21C135.239 529.202 141.89 537.944 141.953 538.028L141.003 538.767C140.94 538.683 134.162 529.773 130.911 517.548C127.891 506.23 127.342 489.698 141.869 475.172C153.249 463.791 166.593 459.611 179.494 463.348C192.078 467.022 202.867 478.043 206.182 490.458C220.688 469.598 247.798 447.364 274.148 446.858C290.216 446.541 304.067 454.226 315.363 469.64C322.774 479.753 322.985 493.668 316.165 505.217C327.778 496.856 341.481 493.499 355.1 495.779C370.091 498.27 383.055 507.223 391.606 520.968C400.495 535.283 402.48 548.142 397.476 559.163C392.176 570.818 379.486 580.467 358.647 588.639C341.333 595.416 318.636 601.075 289.203 605.91Z" fill="white"/>
<path d="M127.639 606.861H292.603C315.575 596.473 340.426 579.35 333.627 555.533C322.69 517.232 282.003 490.101 245.265 531.336C263.317 499.961 267.751 449.773 214.333 457.395C178.544 462.505 173.055 495.527 175.061 523.313C167.016 503.086 131.65 486.237 107.179 500.109C54.9428 529.732 83.5524 587.373 127.639 606.861Z" fill="#B8DCE0"/>
<path d="M227.171 557.265C224.912 557.265 222.906 556.611 221.301 555.344C218.62 553.211 217.416 549.601 217.881 545.188C218.345 540.881 220.372 536.278 223.582 532.245C230.19 523.947 244.632 524.707 245.245 524.75L245.667 524.771L245.794 525.172C245.962 525.763 249.932 539.656 243.302 547.975C240.093 552.008 236.06 555.006 231.964 556.421C230.275 556.991 228.67 557.265 227.171 557.265ZM244.041 525.932C240.515 525.932 229.726 526.481 224.532 533.005C221.449 536.869 219.528 541.24 219.084 545.315C218.662 549.305 219.718 552.536 222.061 554.394C224.405 556.252 227.783 556.569 231.584 555.259C235.469 553.929 239.312 551.058 242.373 547.215C247.989 540.184 245.35 528.297 244.759 525.932C244.569 525.932 244.316 525.932 244.041 525.932Z" fill="white"/>
<path d="M232.962 539.737L213.666 563.724L214.604 564.478L233.899 540.491L232.962 539.737Z" fill="white"/>
<path d="M386.803 606.318H1315.15C1315.15 606.318 1436.87 381.58 1273.23 357.636C1109.6 333.693 1079.2 435.843 1079.2 435.843C1079.2 435.843 1025.06 400.646 937.267 450.517C849.475 500.389 851.291 340.175 386.803 606.318Z" fill="#DBEFF3"/>
<path d="M1122.3 605.862H1251.67C1269.68 597.712 1289.17 584.283 1283.83 565.619C1275.25 535.594 1243.35 514.311 1214.55 546.637C1228.72 522.039 1232.18 482.683 1190.31 488.658C1162.25 492.67 1157.94 518.555 1159.53 540.345C1153.21 524.488 1125.49 511.271 1106.3 522.145C1065.29 545.37 1087.74 590.575 1122.3 605.862Z" fill="#B8DCE0"/>
<path d="M1090.72 606.217H1148.34C1156.36 602.585 1165.04 596.61 1162.67 588.291C1158.85 574.926 1144.64 565.425 1131.8 579.846C1138.12 568.887 1139.66 551.363 1120.99 554.023C1108.49 555.818 1106.57 567.346 1107.27 577.058C1104.46 569.985 1092.11 564.116 1083.56 568.951C1065.31 579.275 1075.32 599.418 1090.72 606.217Z" fill="#9DC4C6"/>
<path d="M1232.77 571.305C1229.18 571.305 1226.27 570.081 1224.45 567.801C1220.1 562.374 1223.42 552.493 1231.8 545.779C1240.1 539.149 1254.01 543.118 1254.6 543.287L1255 543.414L1255.02 543.836C1255.07 544.448 1255.85 558.89 1247.55 565.52C1243.52 568.73 1238.93 570.756 1234.61 571.221C1233.97 571.263 1233.36 571.305 1232.77 571.305ZM1244.72 543.182C1240.62 543.182 1236.02 543.963 1232.56 546.708C1224.68 553 1221.47 562.1 1225.4 567.019C1227.28 569.363 1230.49 570.419 1234.48 569.975C1238.58 569.532 1242.95 567.61 1246.79 564.528C1253.82 558.911 1253.9 546.75 1253.84 544.301C1252.64 544.026 1248.96 543.182 1244.72 543.182Z" fill="white"/>
<path d="M1239.2 555.145L1215.07 574.252L1215.82 575.196L1239.95 556.088L1239.2 555.145Z" fill="white"/>
<path d="M1191.13 455.05C1187.97 455.05 1184.88 453.277 1182.39 449.983C1179.77 446.52 1178.08 441.79 1177.64 436.66C1176.75 426.082 1187.78 416.728 1188.24 416.327L1188.56 416.052L1188.92 416.264C1189.44 416.58 1201.88 423.97 1202.77 434.548C1203.19 439.679 1202.32 444.641 1200.32 448.484C1198.25 452.411 1195.25 454.733 1191.83 455.029C1191.62 455.05 1191.36 455.05 1191.13 455.05ZM1188.7 417.552C1186.89 419.177 1178.1 427.602 1178.84 436.575C1179.25 441.495 1180.85 445.992 1183.34 449.265C1185.77 452.453 1188.75 454.079 1191.74 453.825C1194.72 453.572 1197.4 451.482 1199.26 447.935C1201.18 444.282 1202.01 439.574 1201.58 434.675C1200.84 425.702 1190.77 418.861 1188.7 417.552Z" fill="white"/>
<path d="M1190.72 435.599L1189.52 435.695L1191.96 466.381L1193.16 466.285L1190.72 435.599Z" fill="white"/>
<path d="M1283.76 428.595C1282.07 428.595 1280.49 428.193 1279.09 427.328C1273.16 423.696 1272.91 413.287 1278.52 404.123C1284.08 395.065 1298.5 394.052 1299.11 394.031L1299.53 394.01L1299.7 394.39C1299.93 394.96 1305.59 408.262 1300.04 417.32C1295.73 424.33 1289.23 428.595 1283.76 428.595ZM1298.75 395.277C1296.32 395.509 1284.25 397.092 1279.54 404.757C1274.28 413.35 1274.34 423.02 1279.71 426.293C1285.07 429.587 1293.73 425.259 1298.98 416.686C1303.71 409.001 1299.64 397.557 1298.75 395.277Z" fill="white"/>
<path d="M1288.76 410.505L1272.56 436.684L1273.59 437.317L1289.78 411.138L1288.76 410.505Z" fill="white"/>
<path d="M1017.36 456.969C1012.32 456.969 1008.2 452.852 1008.2 447.806C1008.2 442.76 1012.32 438.643 1017.36 438.643C1022.41 438.643 1026.53 442.76 1026.53 447.806C1026.53 452.852 1022.41 456.969 1017.36 456.969ZM1017.36 439.846C1012.97 439.846 1009.4 443.414 1009.4 447.806C1009.4 452.198 1012.97 455.766 1017.36 455.766C1021.75 455.766 1025.32 452.198 1025.32 447.806C1025.32 443.414 1021.73 439.846 1017.36 439.846Z" fill="white"/>
<path d="M990.443 502.869C993.149 502.869 995.342 500.676 995.342 497.971C995.342 495.265 993.149 493.072 990.443 493.072C987.738 493.072 985.545 495.265 985.545 497.971C985.545 500.676 987.738 502.869 990.443 502.869Z" fill="white"/>
<path d="M1264.5 527.342C1267.21 527.342 1269.4 525.149 1269.4 522.443C1269.4 519.738 1267.21 517.545 1264.5 517.545C1261.8 517.545 1259.61 519.738 1259.61 522.443C1259.61 525.149 1261.8 527.342 1264.5 527.342Z" fill="white"/>
<path d="M1066.29 479.625C1066.29 485.706 1061.37 490.647 1055.26 490.647C1049.18 490.647 1044.24 485.727 1044.24 479.625C1044.24 473.523 1049.16 468.603 1055.26 468.603C1061.37 468.603 1066.29 473.523 1066.29 479.625Z" fill="white"/>
<path d="M519.543 545.672C519.206 546.327 510.802 572.846 512.618 575.486C514.434 578.125 570.28 604.158 571.421 603.821C572.582 603.483 585.25 599.872 571.59 592.947C557.908 586.021 559.238 567.568 559.238 567.568L519.543 545.672Z" fill="#455256"/>
<path d="M636.515 428.975C635.353 453.151 609.468 469.493 591.12 457.922C580.647 451.335 569.414 443.691 558.667 435.394C513.694 400.682 477.315 354.337 541.438 323.679C541.565 323.616 541.692 323.658 541.776 323.743L617.048 401.843L630.73 416.032C633.77 419.199 636.663 423.169 636.536 428.004C636.557 428.342 636.536 428.658 636.515 428.975Z" fill="#97D3DE"/>
<path d="M627.31 473.613C626.296 475.281 625.114 477.182 623.805 479.293C605.076 509.486 559.048 580.746 559.048 580.746L510.105 544.324C510.105 544.324 531.621 509.761 555.606 471.819C570.302 448.53 600.917 429.971 615.275 423.151C660.564 441.499 638.669 454.949 627.31 473.613Z" fill="#97D3DE"/>
<path d="M500.013 387.85H381.732V438.419H500.013V387.85Z" fill="#FCC12A"/>
<path d="M500.013 435.528V438.442H381.753C381.732 438.315 381.732 438.189 381.732 438.062V437.196C381.732 435.191 383.379 433.544 385.385 433.544H496.762C498.176 433.544 499.401 434.346 500.013 435.528Z" fill="#FFA015"/>
<path d="M497.352 389.075H496.951V424.145H497.352V389.075Z" fill="white"/>
<path d="M492.054 390.3H491.652V419.247H492.054V390.3Z" fill="white"/>
<path d="M500.014 387.85V391.165C499.465 392.241 498.409 393.002 497.163 393.128C497.037 393.149 496.91 393.149 496.783 393.149H385.407C383.401 393.149 381.754 391.502 381.754 389.497V388.631C381.754 388.356 381.796 388.103 381.838 387.829H500.014V387.85Z" fill="#FFA015"/>
<path d="M412.116 410.886V415.404H402.15V410.886V400.688V387.851H412.116V400.688V410.886Z" fill="#FFA015"/>
<path d="M400.017 411.286C398.096 411.286 396.533 409.723 396.533 407.802V399.251C396.533 397.329 398.096 395.767 400.017 395.767H414.248C416.169 395.767 417.732 397.329 417.732 399.251V407.781C417.732 408.71 417.373 409.596 416.718 410.251C416.064 410.905 415.177 411.264 414.248 411.264L400.017 411.286ZM414.248 396.59H400.017C398.539 396.59 397.336 397.794 397.336 399.272V407.823C397.336 409.301 398.539 410.504 400.017 410.504H414.248C414.966 410.504 415.641 410.23 416.148 409.723C416.655 409.216 416.929 408.541 416.929 407.823V399.293C416.929 397.794 415.726 396.59 414.248 396.59Z" fill="white"/>
<path d="M412.115 387.851V400.688H402.15H402.107V387.851H412.115Z" fill="#FFA015"/>
<path d="M480.632 393.15V415.404H470.687V410.886L470.666 400.688V387.851H480.632V393.15Z" fill="#FFA015"/>
<path d="M468.533 411.286C466.611 411.286 465.049 409.723 465.049 407.802V399.251C465.049 397.329 466.611 395.767 468.533 395.767H482.763C484.685 395.767 486.247 397.329 486.247 399.251V407.781C486.247 408.71 485.888 409.596 485.234 410.251C484.579 410.905 483.693 411.264 482.763 411.264L468.533 411.286ZM482.763 396.59H468.533C467.055 396.59 465.851 397.794 465.851 399.272V407.823C465.851 409.301 467.055 410.504 468.533 410.504H482.763C483.481 410.504 484.157 410.23 484.664 409.723C485.171 409.216 485.445 408.541 485.445 407.823V399.293C485.445 397.794 484.241 396.59 482.763 396.59Z" fill="white"/>
<path d="M480.631 393.15V400.688H470.665H470.623V393.15V387.851H480.631V393.15Z" fill="#FFA015"/>
<path d="M562.383 607.855L538.208 596.961C536.265 596.095 535.4 593.772 536.265 591.83C537.131 589.887 539.454 589.022 541.396 589.887L565.572 600.782C567.514 601.648 568.38 603.97 567.514 605.913C566.627 607.855 564.326 608.721 562.383 607.855Z" fill="#9EAAEE"/>
<path d="M586.623 577.939C580.838 579.249 575.095 575.638 573.786 569.853C572.477 564.068 576.087 558.324 581.872 557.015C587.658 555.706 593.401 559.317 594.71 565.102C596.019 570.887 592.408 576.63 586.623 577.939Z" fill="#9EAAEE"/>
<path d="M553.853 603.532C552.46 602.392 552.249 600.344 553.368 598.95L577.733 568.863C578.874 567.469 580.922 567.258 582.315 568.377C583.709 569.517 583.92 571.565 582.801 572.959L558.435 603.046C557.316 604.44 555.247 604.651 553.853 603.532Z" fill="#9EAAEE"/>
<path d="M447.799 569.747C447.229 569.747 446.785 569.282 446.785 568.734L447.186 539.575C447.186 539.026 447.651 538.583 448.2 538.583C448.749 538.583 449.192 539.047 449.192 539.596L448.791 568.755C448.812 569.304 448.348 569.747 447.799 569.747Z" fill="#493136"/>
<path d="M997.967 646.001H295.033C293.37 646.001 292 644.892 292 643.501C292 642.13 293.345 641.001 295.033 641.001H997.967C999.63 641.001 1001 642.11 1001 643.501C1001 644.892 999.63 646.001 997.967 646.001Z" fill="#B8DCE0"/>
<path d="M766.874 555.793C766.071 555.793 765.29 555.476 764.699 554.906C764.403 554.61 763.939 554.547 763.559 554.737C762.735 555.159 761.785 555.202 760.919 554.864C760.054 554.526 759.399 553.808 759.104 552.942C758.977 552.541 758.597 552.267 758.175 552.267C757.246 552.267 756.38 551.844 755.789 551.148C755.198 550.451 754.923 549.522 755.071 548.614C755.134 548.192 754.923 547.791 754.564 547.601C753.741 547.157 753.171 546.397 752.959 545.489C752.748 544.581 752.959 543.652 753.508 542.913C753.762 542.575 753.762 542.111 753.53 541.773C753.002 541.013 752.854 540.063 753.086 539.176C753.318 538.289 753.952 537.55 754.775 537.149C755.155 536.959 755.367 536.558 755.324 536.157C755.219 535.249 755.514 534.32 756.148 533.644C756.781 532.969 757.647 532.589 758.597 532.631C759.019 532.652 759.399 532.398 759.547 531.997C759.885 531.132 760.561 530.456 761.447 530.16C762.313 529.844 763.284 529.928 764.087 530.393C764.446 530.604 764.91 530.562 765.227 530.287C765.923 529.675 766.853 529.4 767.76 529.527C768.668 529.654 769.492 530.181 769.977 530.963C770.21 531.322 770.632 531.491 771.033 531.385C771.941 531.174 772.87 531.364 773.63 531.892C774.369 532.441 774.855 533.264 774.939 534.193C774.981 534.615 775.277 534.953 775.678 535.059C776.565 535.291 777.325 535.882 777.726 536.706C778.149 537.529 778.17 538.5 777.811 539.345C777.642 539.725 777.747 540.19 778.064 540.464C778.761 541.076 779.141 541.963 779.12 542.892C779.099 543.821 778.676 544.687 777.959 545.257C777.642 545.531 777.515 545.975 777.663 546.355C777.98 547.221 777.916 548.171 777.473 548.994C777.03 549.796 776.248 550.367 775.34 550.557C774.939 550.641 774.622 550.979 774.559 551.401C774.454 552.309 773.926 553.132 773.166 553.639C772.384 554.146 771.434 554.294 770.547 554.04C770.146 553.914 769.703 554.083 769.471 554.42C768.943 555.181 768.119 555.666 767.19 555.751C767.085 555.793 766.979 555.793 766.874 555.793ZM764.023 552.478C764.826 552.478 765.607 552.774 766.198 553.344C766.472 553.618 766.81 553.639 766.979 553.618C767.148 553.597 767.465 553.534 767.697 553.196C768.478 552.098 769.872 551.591 771.16 551.971C771.54 552.077 771.835 551.95 771.962 551.845C772.11 551.76 772.342 551.528 772.406 551.148C772.574 549.818 773.588 548.72 774.897 548.445C775.277 548.361 775.467 548.107 775.552 547.96C775.636 547.812 775.742 547.516 775.615 547.136C775.15 545.869 775.53 544.455 776.565 543.589C776.861 543.336 776.924 543.019 776.924 542.85C776.924 542.681 776.882 542.364 776.586 542.09C775.573 541.182 775.256 539.746 775.784 538.5C775.932 538.141 775.826 537.825 775.763 537.677C775.678 537.529 775.509 537.255 775.129 537.17C773.82 536.832 772.87 535.713 772.743 534.362C772.701 533.961 772.469 533.75 772.342 533.644C772.194 533.539 771.92 533.391 771.54 533.475C770.231 533.792 768.858 533.243 768.14 532.103C767.929 531.765 767.613 531.681 767.444 531.66C767.275 531.638 766.958 531.638 766.663 531.892C765.649 532.779 764.171 532.926 763.01 532.251C762.672 532.061 762.355 532.124 762.186 532.187C762.017 532.251 761.743 532.398 761.595 532.757C761.11 534.024 759.885 534.827 758.534 534.784C758.154 534.763 757.879 534.974 757.773 535.101C757.668 535.228 757.478 535.502 757.52 535.882C757.668 537.234 756.971 538.522 755.747 539.092C755.388 539.261 755.261 539.556 755.219 539.725C755.176 539.894 755.134 540.211 755.366 540.527C756.127 541.646 756.105 543.124 755.282 544.201C755.05 544.518 755.071 544.835 755.113 545.004C755.155 545.172 755.261 545.468 755.62 545.658C756.802 546.291 757.478 547.622 757.267 548.952C757.203 549.332 757.372 549.606 757.478 549.733C757.583 549.86 757.837 550.071 758.217 550.071C759.568 550.071 760.772 550.937 761.194 552.225C761.321 552.605 761.595 552.752 761.764 552.816C761.912 552.879 762.229 552.964 762.587 552.774C763.031 552.584 763.517 552.478 764.023 552.478Z" fill="#4259DE"/>
<path d="M765.923 549.52C761.912 549.52 758.66 546.268 758.66 542.256C758.66 538.245 761.912 534.993 765.923 534.993C769.935 534.993 773.187 538.245 773.187 542.256C773.187 546.268 769.935 549.52 765.923 549.52ZM765.923 537.907C763.516 537.907 761.574 539.87 761.574 542.256C761.574 544.663 763.538 546.606 765.923 546.606C768.33 546.606 770.273 544.642 770.273 542.256C770.273 539.87 768.33 537.907 765.923 537.907Z" fill="#352AC4"/>
<path d="M458.397 632.983C408.632 632.983 368.135 592.486 368.135 542.72C368.135 492.955 408.632 452.458 458.397 452.458C508.163 452.458 548.66 492.955 548.66 542.72C548.66 592.486 508.184 632.983 458.397 632.983ZM458.397 462.614C414.227 462.614 378.291 498.55 378.291 542.72C378.291 586.891 414.227 622.827 458.397 622.827C502.568 622.827 538.504 586.891 538.504 542.72C538.504 498.55 502.568 462.614 458.397 462.614Z" fill="white"/>
<path d="M461.607 559.589C460.805 559.589 460.003 559.336 459.327 558.85C458.715 558.407 457.912 558.407 457.3 558.85C456.371 559.526 455.189 559.737 454.07 559.463C452.951 559.188 452.022 558.449 451.494 557.415C451.156 556.739 450.438 556.359 449.699 556.465C448.559 556.612 447.419 556.275 446.553 555.514C445.687 554.754 445.202 553.656 445.223 552.516C445.244 551.777 444.779 551.102 444.062 550.848C442.985 550.468 442.119 549.624 441.718 548.547C441.317 547.47 441.401 546.288 441.95 545.274C442.309 544.62 442.204 543.796 441.697 543.247C440.916 542.403 440.557 541.262 440.704 540.122C440.852 538.982 441.465 537.969 442.415 537.335C443.027 536.913 443.323 536.153 443.133 535.435C442.837 534.316 443.048 533.155 443.703 532.205C444.357 531.254 445.392 530.642 446.532 530.537C447.271 530.452 447.883 529.924 448.052 529.185C448.306 528.066 449.045 527.116 450.058 526.588C451.071 526.06 452.275 525.997 453.331 526.419C454.027 526.694 454.809 526.504 455.315 525.934C456.054 525.068 457.152 524.561 458.292 524.561C459.433 524.561 460.531 525.068 461.27 525.934C461.755 526.504 462.558 526.694 463.254 526.419C464.331 525.997 465.514 526.06 466.527 526.588C467.54 527.116 468.279 528.066 468.533 529.185C468.702 529.924 469.314 530.452 470.053 530.537C471.193 530.663 472.228 531.276 472.882 532.205C473.537 533.155 473.748 534.337 473.452 535.435C473.262 536.153 473.558 536.913 474.17 537.335C475.12 537.969 475.754 538.982 475.88 540.122C476.028 541.262 475.648 542.403 474.888 543.247C474.381 543.796 474.276 544.62 474.635 545.274C475.184 546.288 475.268 547.47 474.867 548.547C474.466 549.624 473.6 550.468 472.523 550.848C471.827 551.102 471.362 551.777 471.362 552.516C471.383 553.656 470.898 554.754 470.032 555.514C469.166 556.275 468.026 556.612 466.886 556.465C466.147 556.359 465.429 556.739 465.091 557.415C464.584 558.449 463.634 559.188 462.515 559.463C462.241 559.547 461.924 559.589 461.607 559.589ZM458.314 556.359C459.116 556.359 459.918 556.612 460.594 557.098C461.016 557.394 461.544 557.499 462.03 557.373C462.536 557.246 462.938 556.908 463.17 556.465C463.93 554.966 465.556 554.121 467.203 554.353C467.709 554.417 468.216 554.269 468.596 553.931C468.976 553.593 469.187 553.107 469.187 552.601C469.166 550.933 470.201 549.413 471.784 548.842C472.27 548.674 472.65 548.293 472.819 547.808C473.009 547.322 472.967 546.794 472.713 546.351C471.911 544.873 472.122 543.057 473.262 541.811C473.6 541.431 473.769 540.925 473.706 540.418C473.642 539.911 473.368 539.447 472.946 539.172C471.552 538.243 470.898 536.533 471.32 534.907C471.447 534.422 471.362 533.894 471.066 533.471C470.771 533.049 470.327 532.775 469.8 532.732C468.132 532.563 466.759 531.339 466.379 529.713C466.274 529.206 465.936 528.784 465.492 528.552C465.049 528.32 464.5 528.277 464.035 528.467C462.473 529.08 460.699 528.657 459.602 527.369C458.926 526.588 457.617 526.588 456.941 527.369C455.843 528.636 454.07 529.08 452.507 528.467C452.022 528.277 451.494 528.298 451.05 528.552C450.607 528.784 450.269 529.206 450.164 529.713C449.784 531.339 448.411 532.563 446.743 532.732C446.236 532.796 445.772 533.049 445.476 533.471C445.181 533.894 445.096 534.422 445.223 534.907C445.645 536.533 444.991 538.243 443.597 539.172C443.175 539.447 442.9 539.911 442.837 540.418C442.774 540.925 442.943 541.431 443.28 541.811C444.421 543.057 444.632 544.873 443.829 546.351C443.576 546.794 443.555 547.322 443.724 547.808C443.914 548.293 444.294 548.652 444.758 548.842C446.342 549.413 447.377 550.933 447.355 552.601C447.355 553.107 447.567 553.593 447.947 553.931C448.327 554.269 448.833 554.417 449.34 554.353C451.008 554.121 452.634 554.987 453.373 556.465C453.605 556.929 454.027 557.246 454.513 557.373C455.02 557.499 455.527 557.394 455.949 557.098C456.709 556.591 457.511 556.359 458.314 556.359Z" fill="#4259DE"/>
<path d="M584.808 584.633C583.984 584.633 583.224 584.316 582.654 583.725C582.295 583.345 581.725 583.261 581.261 583.472C580.522 583.831 579.698 583.873 578.917 583.599C578.136 583.324 577.545 582.754 577.207 581.994C576.996 581.529 576.51 581.234 575.982 581.297C575.159 581.382 574.378 581.128 573.744 580.6C573.111 580.073 572.731 579.334 572.667 578.51C572.625 578.003 572.266 577.56 571.759 577.433C570.957 577.222 570.302 576.736 569.88 576.019C569.479 575.301 569.374 574.477 569.585 573.696C569.732 573.189 569.521 572.662 569.099 572.366C568.423 571.901 567.959 571.205 567.832 570.402C567.684 569.6 567.874 568.777 568.36 568.122C568.656 567.7 568.656 567.13 568.36 566.707C567.874 566.032 567.705 565.229 567.832 564.427C567.98 563.625 568.423 562.928 569.099 562.463C569.521 562.168 569.711 561.64 569.585 561.133C569.352 560.352 569.458 559.507 569.88 558.811C570.281 558.093 570.957 557.607 571.759 557.396C572.266 557.269 572.625 556.826 572.667 556.319C572.731 555.496 573.111 554.757 573.744 554.229C574.378 553.701 575.159 553.448 575.982 553.532C576.51 553.574 576.996 553.3 577.207 552.835C577.545 552.096 578.157 551.526 578.917 551.231C579.698 550.956 580.522 550.998 581.261 551.357C581.725 551.59 582.295 551.484 582.654 551.104C583.224 550.513 584.006 550.196 584.808 550.196C585.631 550.196 586.391 550.513 586.961 551.104C587.32 551.484 587.891 551.569 588.355 551.357C589.094 550.998 589.917 550.956 590.699 551.231C591.48 551.505 592.071 552.075 592.409 552.835C592.62 553.3 593.106 553.596 593.634 553.532C594.457 553.448 595.238 553.701 595.872 554.229C596.505 554.757 596.885 555.496 596.948 556.319C596.991 556.826 597.35 557.269 597.856 557.396C598.659 557.607 599.313 558.093 599.736 558.811C600.137 559.529 600.242 560.352 600.031 561.133C599.883 561.64 600.094 562.168 600.517 562.463C601.192 562.928 601.657 563.625 601.784 564.427C601.931 565.229 601.741 566.053 601.256 566.707C600.96 567.13 600.96 567.7 601.256 568.122C601.741 568.798 601.91 569.6 601.784 570.402C601.636 571.205 601.192 571.901 600.517 572.366C600.094 572.662 599.904 573.189 600.031 573.696C600.263 574.477 600.158 575.322 599.736 576.019C599.334 576.736 598.659 577.243 597.856 577.433C597.35 577.56 596.991 578.003 596.948 578.51C596.885 579.334 596.505 580.073 595.872 580.6C595.238 581.128 594.457 581.382 593.634 581.297C593.127 581.255 592.62 581.529 592.409 581.994C592.071 582.733 591.459 583.303 590.699 583.599C589.917 583.873 589.094 583.831 588.355 583.472C587.891 583.24 587.32 583.345 586.961 583.725C586.413 584.316 585.631 584.633 584.808 584.633ZM581.789 581.55C582.591 581.55 583.372 581.867 583.942 582.458C584.407 582.923 585.209 582.923 585.674 582.458C586.581 581.529 587.975 581.276 589.136 581.846C589.432 581.994 589.77 582.015 590.065 581.888C590.382 581.783 590.614 581.551 590.762 581.255C591.29 580.073 592.514 579.355 593.824 579.502C594.14 579.545 594.478 579.439 594.71 579.228C594.964 579.017 595.111 578.721 595.133 578.405C595.238 577.117 596.146 576.019 597.392 575.702C597.709 575.617 597.983 575.427 598.131 575.132C598.3 574.857 598.342 574.52 598.258 574.203C597.899 572.957 598.384 571.627 599.461 570.888C599.736 570.698 599.904 570.423 599.968 570.107C600.031 569.79 599.947 569.452 599.757 569.199C598.996 568.143 598.996 566.728 599.757 565.673C599.947 565.398 600.031 565.082 599.968 564.765C599.904 564.448 599.736 564.153 599.461 563.984C598.384 563.245 597.899 561.914 598.258 560.669C598.342 560.352 598.3 560.014 598.131 559.74C597.962 559.465 597.709 559.254 597.392 559.17C596.125 558.853 595.217 557.755 595.133 556.467C595.111 556.15 594.964 555.834 594.71 555.644C594.457 555.432 594.14 555.327 593.824 555.369C592.536 555.496 591.311 554.799 590.762 553.617C590.635 553.321 590.382 553.089 590.065 552.983C589.749 552.878 589.432 552.878 589.136 553.025C587.975 553.596 586.581 553.342 585.674 552.413C585.441 552.181 585.146 552.054 584.808 552.054C584.47 552.054 584.174 552.181 583.942 552.413C583.034 553.342 581.641 553.596 580.479 553.025C580.184 552.878 579.846 552.856 579.55 552.983C579.234 553.089 579.001 553.321 578.854 553.617C578.326 554.799 577.08 555.517 575.792 555.369C575.475 555.327 575.138 555.432 574.905 555.644C574.652 555.855 574.504 556.15 574.483 556.467C574.377 557.755 573.47 558.853 572.224 559.17C571.907 559.254 571.633 559.444 571.485 559.74C571.316 560.014 571.274 560.352 571.358 560.669C571.717 561.914 571.232 563.245 570.155 563.984C569.88 564.174 569.711 564.448 569.648 564.765C569.585 565.082 569.669 565.419 569.859 565.673C570.619 566.728 570.619 568.143 569.859 569.199C569.669 569.473 569.585 569.79 569.648 570.107C569.711 570.423 569.88 570.719 570.155 570.888C571.232 571.627 571.717 572.957 571.358 574.203C571.274 574.52 571.316 574.857 571.485 575.132C571.654 575.406 571.907 575.617 572.224 575.702C573.491 576.019 574.399 577.117 574.483 578.405C574.504 578.721 574.652 579.038 574.905 579.228C575.159 579.439 575.475 579.545 575.792 579.502C577.08 579.376 578.305 580.073 578.854 581.255C578.98 581.551 579.234 581.783 579.55 581.888C579.867 581.994 580.184 581.994 580.479 581.846C580.902 581.656 581.345 581.55 581.789 581.55Z" fill="#788FFF"/>
<path d="M458.398 640.521C404.473 640.521 360.598 596.646 360.598 542.721C360.598 488.796 404.473 444.921 458.398 444.921C512.323 444.921 556.198 488.796 556.198 542.721C556.198 596.646 512.323 640.521 458.398 640.521ZM458.398 455.077C410.068 455.077 370.754 494.391 370.754 542.721C370.754 591.051 410.068 630.365 458.398 630.365C506.728 630.365 546.042 591.051 546.042 542.721C546.042 494.391 506.728 455.077 458.398 455.077Z" fill="#F88870"/>
<path d="M767.593 632.983C717.827 632.983 677.33 592.486 677.33 542.72C677.33 492.955 717.827 452.458 767.593 452.458C817.358 452.458 857.855 492.955 857.855 542.72C857.855 592.486 817.358 632.983 767.593 632.983ZM767.593 462.614C723.422 462.614 687.486 498.55 687.486 542.72C687.486 586.891 723.422 622.827 767.593 622.827C811.763 622.827 847.699 586.891 847.699 542.72C847.699 498.55 811.763 462.614 767.593 462.614Z" fill="white"/>
<path d="M768.035 640.756C714.109 640.756 670.234 596.881 670.234 542.955C670.234 489.03 714.109 445.155 768.035 445.155C821.96 445.155 865.835 489.03 865.835 542.955C865.835 596.881 821.96 640.756 768.035 640.756ZM768.035 455.311C719.705 455.311 680.39 494.625 680.39 542.955C680.39 591.285 719.705 630.6 768.035 630.6C816.365 630.6 855.679 591.285 855.679 542.955C855.679 494.625 816.365 455.311 768.035 455.311Z" fill="#F88870"/>
<path d="M584.175 568.863C583.077 568.863 582.085 568.166 581.747 567.068L528.476 392.265C528.075 390.914 528.814 389.499 530.165 389.098C531.517 388.697 532.931 389.436 533.332 390.787L586.603 565.59C587.004 566.942 586.265 568.356 584.914 568.757C584.682 568.821 584.428 568.863 584.175 568.863Z" fill="#3163D3"/>
<path d="M580.226 600.89L453.457 574.898C452.866 574.771 452.486 574.201 452.612 573.61C452.739 573.019 453.309 572.639 453.9 572.766L578.705 598.736C580.078 599.032 581.492 599.137 582.886 599.074C588.291 598.799 601.276 597.131 609.11 587.609C615.972 579.269 619.097 569.324 613.396 550.744C604.76 534.275 590.001 533.536 574.356 534.232C471.362 534 465.703 533.409 465.513 533.388C464.922 533.303 464.499 532.776 464.584 532.163C464.668 531.572 465.196 531.15 465.809 531.234C466.041 531.255 472.924 531.825 574.314 532.079C586.665 531.53 605.415 530.706 615.402 549.878C615.444 549.962 615.465 550.026 615.486 550.11C619.709 567.001 617.851 579.881 610.799 589.002C600.347 602.515 580.268 600.911 580.226 600.89Z" fill="#493136"/>
<path d="M556.493 403.367C556.493 403.367 511.035 369.057 502.653 381.472C502.653 381.472 501.914 383.055 501.154 385.483C498.472 393.908 503.202 402.881 511.647 405.436L513.653 406.049C518.024 407.358 522.648 407.337 527.06 406.196C530.396 405.352 535.485 405.5 544.648 408.329C572.435 416.901 556.493 403.367 556.493 403.367Z" fill="#493136"/>
<path d="M765.65 543.249L753.53 515.357L714.364 386.287C713.962 384.936 712.548 384.197 711.196 384.598C709.845 384.999 709.085 386.414 709.507 387.765L748.716 516.983C748.737 517.068 748.779 517.173 748.822 517.258L760.139 543.27H765.65V543.249Z" fill="#3163D3"/>
<path d="M711.217 386.731C710.393 386.731 709.654 386.161 709.443 385.338L704.735 365.385C704.503 364.414 705.115 363.421 706.086 363.21C707.057 362.978 708.029 363.59 708.261 364.561L712.969 384.514C713.202 385.485 712.589 386.478 711.618 386.689C711.491 386.71 711.344 386.731 711.217 386.731Z" fill="#493136"/>
<path d="M458.589 554.082C452.129 554.082 446.871 548.825 446.871 542.364C446.871 535.903 452.129 530.645 458.589 530.645C465.05 530.645 470.308 535.903 470.308 542.364C470.329 548.825 465.071 554.082 458.589 554.082ZM458.589 533.538C453.733 533.538 449.764 537.486 449.764 542.364C449.764 547.22 453.712 551.189 458.589 551.189C463.446 551.189 467.415 547.241 467.415 542.364C467.415 537.486 463.467 533.538 458.589 533.538Z" fill="#352AC4"/>
<path d="M584.174 601.166C564.96 601.166 549.336 585.541 549.336 566.327C549.336 547.114 564.96 531.489 584.174 531.489C603.388 531.489 619.012 547.114 619.012 566.327C619.033 585.52 603.388 601.166 584.174 601.166ZM584.174 534.382C566.565 534.382 552.229 548.718 552.229 566.327C552.229 583.936 566.565 598.273 584.174 598.273C601.783 598.273 616.12 583.936 616.12 566.327C616.12 548.718 601.783 534.382 584.174 534.382Z" fill="#352AC4"/>
<path d="M585.632 571.035C585.463 571.035 585.294 571.014 585.146 570.993L456.667 545.593C455.823 545.424 455.126 544.854 454.809 544.051C454.493 543.249 454.598 542.362 455.084 541.644L537.471 422.962C537.872 422.371 538.505 421.991 539.223 421.885L713.815 398.301C715.061 398.132 716.244 398.913 716.603 400.117L727.497 437.869C727.772 438.798 727.497 439.769 726.78 440.424L587.406 570.359C586.899 570.803 586.265 571.035 585.632 571.035ZM461.439 541.349L584.851 565.757L722.134 437.763L712.295 403.622L540.997 426.763L461.439 541.349Z" fill="#3163D3"/>
<path d="M451.452 581.445C450.713 581.255 450.079 580.811 449.657 580.157C449.446 579.819 449.045 579.671 448.665 579.755C447.82 579.967 446.933 579.777 446.237 579.27C445.54 578.763 445.097 577.982 445.012 577.116C444.97 576.715 444.695 576.398 444.315 576.293C443.471 576.082 442.774 575.512 442.394 574.73C442.014 573.949 441.972 573.062 442.31 572.26C442.457 571.901 442.373 571.479 442.077 571.204C441.423 570.634 441.064 569.79 441.085 568.924C441.106 568.058 441.507 567.256 442.162 566.686C442.457 566.433 442.584 566.01 442.436 565.651C442.141 564.849 442.204 563.941 442.626 563.181C443.048 562.421 443.766 561.893 444.611 561.703C444.991 561.618 445.287 561.302 445.329 560.922C445.434 560.056 445.92 559.296 446.638 558.81C447.356 558.325 448.243 558.198 449.087 558.43C449.467 558.536 449.868 558.388 450.101 558.071C450.586 557.353 451.367 556.91 452.233 556.826C453.099 556.741 453.943 557.037 454.577 557.628C454.872 557.902 455.295 557.966 455.632 557.776C456.393 557.375 457.3 557.332 458.103 557.649C458.905 557.966 459.517 558.62 459.813 559.444C459.94 559.824 460.299 560.077 460.679 560.077C461.544 560.077 462.368 560.457 462.917 561.133C463.487 561.787 463.719 562.653 463.592 563.519C463.529 563.899 463.719 564.3 464.078 564.469C464.838 564.87 465.387 565.588 465.577 566.433C465.767 567.277 465.577 568.164 465.07 568.861C464.838 569.177 464.817 569.6 465.049 569.937C465.535 570.655 465.683 571.542 465.472 572.387C465.239 573.231 464.669 573.928 463.888 574.287C463.529 574.456 463.318 574.836 463.36 575.216C463.466 576.082 463.17 576.926 462.6 577.581C462.009 578.214 461.185 578.573 460.32 578.531C459.919 578.51 459.56 578.763 459.433 579.122C459.116 579.924 458.483 580.558 457.659 580.853C456.836 581.149 455.949 581.065 455.189 580.642C454.851 580.452 454.408 580.494 454.112 580.748C453.458 581.318 452.592 581.571 451.726 581.445C451.642 581.487 451.536 581.487 451.452 581.445ZM449.573 577.792C450.291 577.961 450.945 578.425 451.367 579.08C451.557 579.397 451.853 579.481 452.022 579.502C452.17 579.523 452.486 579.523 452.761 579.291C453.711 578.446 455.083 578.32 456.181 578.953C456.498 579.143 456.794 579.08 456.942 579.016C457.089 578.953 457.364 578.826 457.49 578.489C457.955 577.306 459.095 576.546 460.362 576.588C460.721 576.609 460.974 576.419 461.08 576.293C461.185 576.187 461.354 575.934 461.312 575.554C461.164 574.287 461.84 573.083 462.98 572.534C463.318 572.366 463.424 572.091 463.466 571.943C463.508 571.795 463.55 571.479 463.339 571.183C462.621 570.127 462.663 568.755 463.402 567.742C463.614 567.446 463.592 567.15 463.571 566.981C463.529 566.834 463.424 566.538 463.107 566.369C461.988 565.778 461.375 564.532 461.566 563.286C461.629 562.928 461.46 562.674 461.354 562.547C461.249 562.421 461.017 562.231 460.658 562.231C459.391 562.231 458.272 561.407 457.871 560.204C457.744 559.845 457.491 559.697 457.343 559.634C457.195 559.57 456.899 559.507 456.583 559.676C455.464 560.267 454.091 560.056 453.162 559.19C452.888 558.937 452.592 558.916 452.423 558.937C452.275 558.958 451.98 559.021 451.748 559.317C451.03 560.352 449.721 560.816 448.496 560.478C448.158 560.373 447.862 560.499 447.736 560.605C447.609 560.689 447.377 560.901 447.335 561.26C447.166 562.526 446.237 563.54 444.991 563.793C444.632 563.878 444.442 564.11 444.379 564.258C444.294 564.406 444.189 564.68 444.315 565.018C444.759 566.2 444.4 567.552 443.429 568.354C443.133 568.586 443.091 568.882 443.091 569.051C443.091 569.22 443.133 569.515 443.407 569.769C444.358 570.613 444.653 571.964 444.168 573.126C444.02 573.463 444.125 573.759 444.189 573.886C444.252 574.034 444.421 574.287 444.78 574.371C446.004 574.688 446.912 575.744 447.018 576.99C447.039 577.348 447.271 577.56 447.398 577.665C447.525 577.75 447.799 577.897 448.158 577.813C448.644 577.665 449.129 577.665 449.573 577.792Z" fill="#4259DE"/>
<path d="M451.98 575.534C448.327 574.626 446.089 570.931 446.997 567.299C447.905 563.647 451.6 561.409 455.231 562.316C458.884 563.224 461.122 566.919 460.214 570.551C459.328 574.183 455.633 576.421 451.98 575.534ZM454.577 564.956C452.381 564.407 450.164 565.758 449.636 567.954C449.087 570.15 450.439 572.367 452.634 572.895C454.83 573.444 457.047 572.092 457.575 569.896C458.103 567.701 456.773 565.484 454.577 564.956Z" fill="#352AC4"/>
<path d="M773.672 542.216C773.672 546.269 770.378 549.563 766.324 549.563C762.27 549.563 758.977 546.269 758.977 542.216C758.977 538.162 762.27 534.868 766.324 534.868C770.378 534.889 773.672 538.162 773.672 542.216Z" fill="#3163D3"/>
<path d="M541.734 444.541H398.728C397.018 444.541 395.604 443.127 395.604 441.416C395.604 439.706 397.018 438.292 398.728 438.292H541.734C543.444 438.292 544.859 439.706 544.859 441.416C544.859 443.148 543.465 444.541 541.734 444.541Z" fill="#3163D3"/>
<path d="M458.798 542.093L415.789 442.096H411.65L455.314 543.592C455.737 544.563 456.856 545.006 457.806 544.584C458.777 544.183 459.22 543.064 458.798 542.093Z" fill="#2A65FC"/>
<path d="M467.792 542.092C467.792 547.265 463.591 551.467 458.418 551.467C453.245 551.467 449.043 547.265 449.043 542.092C449.043 536.919 453.245 532.718 458.418 532.718C463.591 532.718 467.792 536.919 467.792 542.092Z" fill="#3163D3"/>
<path d="M575.518 561.617C578.811 556.698 585.483 555.389 590.403 558.683C595.323 561.976 596.632 568.648 593.338 573.568C590.044 578.487 583.372 579.797 578.452 576.503C573.554 573.209 572.224 566.537 575.518 561.617Z" fill="#F88870"/>
<path d="M608.581 531.55C610.08 532.543 610.481 534.591 609.468 536.09L587.932 568.247C586.939 569.746 584.891 570.147 583.392 569.133C581.893 568.141 581.492 566.093 582.505 564.594L604.042 532.437C605.034 530.959 607.082 530.558 608.581 531.55Z" fill="#F88870"/>
<path d="M622.347 545.145L590.909 529.711C589.072 528.803 588.312 526.586 589.219 524.749C590.127 522.912 592.344 522.152 594.181 523.06L625.62 538.495C627.457 539.381 628.217 541.619 627.309 543.456C626.401 545.272 624.184 546.032 622.347 545.145Z" fill="#F88870"/>
<path d="M586.878 477.581C586.476 478.404 576.067 511.236 578.305 514.488C580.543 517.761 649.671 549.96 651.106 549.558C652.542 549.157 668.23 544.66 651.318 536.109C634.384 527.536 636.031 504.712 636.031 504.712L586.878 477.581Z" fill="#493136"/>
<path d="M649.691 546.093C649.628 546.093 649.565 546.072 649.522 546.051L603.029 523.818C602.945 523.775 602.903 523.733 602.86 523.649L599.672 518.054L579.804 508.932C579.593 508.848 579.508 508.594 579.614 508.404C579.698 508.193 579.952 508.109 580.142 508.214L600.116 517.399C600.2 517.441 600.263 517.483 600.306 517.568L603.515 523.163L649.902 545.333C650.114 545.438 650.198 545.671 650.092 545.861C649.987 546.009 649.839 546.093 649.691 546.093Z" fill="#11B5D1"/>
<path d="M688.795 377.754C687.887 382.421 686.578 386.812 685.184 390.528C684.509 392.365 683.706 394.456 682.819 396.778C670.088 429.948 638.227 508.577 638.227 508.577L597.73 488.941L583.33 481.973C583.33 481.973 594.373 434.805 610.799 393.041C620.871 367.409 632.99 343.824 645.807 334.428C688.563 330.438 692.849 356.809 688.795 377.754Z" fill="#11B5D1"/>
<path d="M688.288 357.55C689.407 367.727 683.748 376.848 673.613 378.22C673.55 378.22 670.953 380.121 670.89 380.121C630.646 389.643 605.183 460.713 597.708 488.964L583.309 481.996C583.309 481.996 594.351 434.827 610.778 393.064C620.849 367.431 632.969 343.847 645.785 334.451C677.414 331.474 686.556 341.756 688.288 357.55Z" fill="#10AAC4"/>
<path d="M629.294 487.68C629.252 487.68 629.189 487.68 629.147 487.659L587.425 470.155C587.214 470.071 587.13 469.839 587.214 469.627C587.298 469.416 587.531 469.332 587.742 469.416L629.463 486.92C629.674 487.004 629.759 487.237 629.674 487.448C629.611 487.595 629.463 487.68 629.294 487.68Z" fill="white"/>
<path d="M624.819 493.824C624.756 493.824 624.713 493.803 624.65 493.782L586.033 477.06C585.821 476.975 585.737 476.743 585.821 476.532C585.906 476.321 586.138 476.236 586.349 476.321L624.967 493.043C625.178 493.127 625.262 493.36 625.178 493.571C625.136 493.74 624.988 493.824 624.819 493.824Z" fill="white"/>
<path d="M662.171 385.375C648.489 389.472 633.709 394.666 618.549 398.508C555.144 414.597 488.381 416.603 510.846 345.28C510.888 345.132 511.015 345.048 511.163 345.048L621.484 331.366C633.519 329.867 645.702 329.846 657.716 331.471C665.127 332.485 672.179 334.047 675.071 336.475C675.346 336.686 714.386 369.772 662.171 385.375Z" fill="#11B5D1"/>
<path d="M639.072 453.913C639.03 453.913 638.967 453.913 638.925 453.892C638.714 453.807 638.608 453.575 638.692 453.364L669.139 372.961C672.137 365.044 668.527 356.281 660.904 353.051C658.772 352.143 656.47 351.721 654.127 351.805L597.858 353.727C597.626 353.727 597.457 353.558 597.436 353.347C597.436 353.114 597.604 352.945 597.816 352.924L654.085 351.003C656.555 350.918 658.962 351.362 661.2 352.312C669.223 355.732 673.024 364.917 669.878 373.257L639.431 453.659C639.389 453.828 639.241 453.913 639.072 453.913Z" fill="white"/>
<path d="M624.946 469.684C624.904 469.684 624.841 469.684 624.799 469.663C624.587 469.578 624.482 469.346 624.566 469.135L662.318 373.847C664.577 368.146 661.938 361.601 656.427 359.257C654.865 358.603 653.218 358.286 651.508 358.349L590.235 360.44C590.003 360.44 589.834 360.271 589.812 360.06C589.812 359.827 589.981 359.659 590.193 359.637L651.466 357.547C653.302 357.484 655.076 357.822 656.723 358.518C662.635 361.031 665.464 368.041 663.036 374.143L625.284 469.431C625.263 469.599 625.094 469.684 624.946 469.684Z" fill="white"/>
<path d="M608.35 401.781C607.864 401.781 607.442 401.443 607.357 400.957C607.252 400.409 607.632 399.881 608.181 399.796C608.455 399.754 635.418 394.94 649.121 389.155C649.628 388.944 650.219 389.176 650.43 389.683C650.641 390.189 650.409 390.781 649.902 390.992C635.988 396.861 608.793 401.696 608.519 401.76C608.477 401.781 608.413 401.781 608.35 401.781Z" fill="#0094A3"/>
<path d="M700.977 206.497C700.977 206.497 713.076 204.195 715.778 211.099C718.46 217.983 743.459 224.739 746.605 210.888C739.553 201.07 732.881 191.02 732.881 191.02C732.881 191.02 730.389 174.72 719.03 175.417C707.671 176.113 702.139 186.058 702.139 186.058C702.139 186.058 687.464 175.818 682.672 184.158C677.879 192.54 679.927 213.401 700.977 206.497Z" fill="#00A4B5"/>
<path d="M695.825 213.823C695.825 213.823 707.923 211.521 710.626 218.426C713.307 225.309 738.729 230.777 741.854 216.927C744.978 203.076 727.707 198.346 727.707 198.346C727.707 198.346 725.216 182.046 713.856 182.743C702.497 183.461 696.965 193.384 696.965 193.384C696.965 193.384 682.291 183.144 677.498 191.484C672.726 199.888 674.753 220.748 695.825 213.823Z" fill="#493136"/>
<path d="M701.019 217.794C701.019 217.794 700.893 218.026 700.133 219.166C699.182 220.623 697.219 223.537 693.249 229.343C690.948 232.679 687.971 236.987 684.128 242.518C682.587 244.735 680.919 247.142 679.082 249.761C676.717 253.16 674.078 256.897 671.185 261.035C668.82 264.414 664.408 265.765 660.586 264.181C652.668 260.93 648.994 253.751 647.305 248.557C646.228 245.242 647.178 241.589 649.797 239.288L676.189 215.851L681.616 211.037L684.044 208.884L692.531 201.325L693.65 200.333L693.925 200.966L700.006 215.387L701.019 217.794Z" fill="#FFAB6D"/>
<path d="M700.132 219.945C699.203 221.338 697.26 224.168 693.354 229.763C691.095 232.993 688.16 237.153 684.402 242.495C680.095 241.122 676.062 237.406 676.759 228.137C677.244 221.486 679.313 216.144 681.932 212.069C682.375 211.394 682.818 210.76 683.283 210.169C685.774 206.896 688.582 204.658 691.011 203.434C691.602 203.138 692.151 202.885 692.679 202.716C693.164 202.547 693.629 202.441 694.051 202.357C694.874 202.23 695.55 202.294 696.015 202.547C697.619 203.434 699.498 209.05 700.026 216.292C700.09 217.475 700.132 218.699 700.132 219.945Z" fill="#D35E0D"/>
<path d="M719.345 208.858C719.345 208.858 712.082 244.71 702.18 241.163C689.596 236.665 679.968 228.198 681.91 215.192C683.304 205.86 698.632 190.045 698.632 190.045C698.632 190.045 722.069 193.508 719.345 208.858Z" fill="#FFAB6D"/>
<path d="M701.611 199.338C701.611 199.338 712.759 201.386 713.35 208.248C713.941 215.11 732.881 227.483 739.13 216.546C745.38 205.609 733.345 196.572 733.345 196.572C733.345 196.572 735.309 181.623 725.216 178.456C715.124 175.289 707.776 182.046 707.776 182.046C707.776 182.046 697.578 168.279 691.286 173.917C685.015 179.554 681.489 198.304 701.611 199.338Z" fill="#493136"/>
<path d="M685.944 200.646C685.205 203.201 686.071 205.693 687.844 206.199C689.639 206.706 691.687 205.059 692.405 202.504C693.144 199.95 692.278 197.458 690.505 196.951C688.731 196.424 686.683 198.092 685.944 200.646Z" fill="#FFAB6D"/>
<path d="M693.082 209.639C687.001 209.385 682.25 204.402 682.039 204.191L683.496 202.819C683.538 202.861 687.909 207.401 693.166 207.633L693.082 209.639Z" fill="#493136"/>
<path d="M690.928 234.344L688.922 234.133L691.793 208.12L695.699 196.254L697.6 196.888L693.757 208.543L690.928 234.344Z" fill="#493136"/>
<path d="M692.911 196.447C692.911 196.447 692.13 197.355 690.906 198.685C689.238 200.522 686.767 203.14 684.487 205.23C680.56 208.82 670.974 206.117 670.974 206.117C670.974 206.117 670.763 205.294 670.446 204.09C670.045 202.57 669.496 200.459 669.01 198.601C668.842 197.925 668.673 197.27 668.504 196.7C668.187 195.518 667.976 194.673 667.934 194.504L692.911 196.447Z" fill="#6896EA"/>
<path d="M677.667 201.365C677.667 202.125 677.329 202.8 676.801 203.307C676.273 203.814 675.534 204.109 674.732 204.109H670.467C670.066 202.589 669.517 200.478 669.031 198.62H674.732C676.337 198.62 677.667 199.866 677.667 201.365Z" fill="#3163D3"/>
<path d="M746.605 210.889C746.605 210.889 746.394 211.1 745.908 211.374C745.824 211.417 745.761 211.459 745.676 211.501C745.634 211.522 745.571 211.543 745.507 211.586C745.001 211.818 744.325 212.05 743.417 212.24C743.037 212.325 742.636 212.388 742.171 212.451C741.263 212.557 740.208 212.599 738.962 212.557C737.758 212.515 736.407 212.367 734.866 212.113C731.741 211.586 727.877 210.551 723.126 208.714C721.944 208.081 720.762 207.489 719.579 206.919C718.334 206.307 717.088 205.737 715.842 205.188C713.857 204.322 711.915 203.541 709.972 202.865C705.032 201.071 700.302 199.804 695.91 198.917C694.601 198.643 693.313 198.41 692.068 198.22C691.92 198.199 691.772 198.178 691.603 198.157C691.561 198.157 691.519 198.136 691.476 198.136C690.252 197.946 689.048 197.777 687.887 197.65C683.158 197.101 679.083 196.975 675.873 197.038H675.662C672.115 197.101 669.687 197.397 668.715 197.524C668.652 197.524 668.589 197.545 668.547 197.545C668.462 197.545 668.42 197.566 668.357 197.566C668.293 197.587 668.251 197.587 668.251 197.587C663.796 190.746 663.901 184.285 667.343 179.175C667.829 178.458 668.357 177.782 668.969 177.127C669.053 177.022 669.159 176.916 669.264 176.832C670.489 175.565 671.946 174.404 673.635 173.369C674.184 173.031 674.733 172.736 675.303 172.419C683.263 168.281 695.193 166.845 708.938 169.822C718.566 171.912 725.85 176.642 731.298 182.195C736.006 186.988 739.363 192.372 741.707 197.165C745.423 204.723 746.605 210.889 746.605 210.889Z" fill="#6896EA"/>
<path d="M746.605 210.886C746.605 210.886 746.394 211.097 745.908 211.371C742.699 213.124 738.687 211.519 737.42 208.077C721.69 165.469 690.568 169.861 673.635 173.324C681.553 168.467 694.2 166.588 708.937 169.777C740.038 176.533 746.605 210.886 746.605 210.886Z" fill="#3163D3"/>
<path d="M734.845 212.068C731.72 211.541 727.856 210.506 723.105 208.669C721.923 208.036 720.74 207.444 719.558 206.874C718.312 206.262 717.067 205.692 715.821 205.143C714.195 200.625 712.147 196.824 709.867 193.615C707.882 190.828 705.686 188.484 703.385 186.541C702.435 185.739 701.463 184.979 700.471 184.303C699.035 183.29 697.557 182.424 696.079 181.643C694.517 180.841 692.975 180.165 691.413 179.595C690.611 179.299 689.808 179.025 689.006 178.793C688.774 178.729 688.541 178.645 688.309 178.581C686.029 177.927 683.833 177.484 681.785 177.188C674.585 176.153 669.243 176.998 669.243 176.998C669.243 176.998 669.243 176.998 668.969 177.082C669.053 176.977 669.159 176.871 669.264 176.787C673.656 176.027 677.9 175.668 681.912 175.689C684.276 175.71 686.557 175.858 688.774 176.132C689.323 176.196 689.893 176.28 690.442 176.365C697.599 177.484 703.849 179.975 708.917 183.712C711.535 185.634 713.836 187.893 715.758 190.469C715.969 190.764 716.201 191.06 716.412 191.334C725.174 202.905 731.656 209.535 734.845 212.068Z" fill="#3163D3"/>
<path d="M703.512 201.068C703.47 201.068 703.427 201.068 703.385 201.046C685.734 195.43 668.484 197.922 668.315 197.943C668.083 197.985 667.892 197.816 667.85 197.605C667.808 197.394 667.977 197.183 668.188 197.14C668.357 197.119 685.797 194.586 703.639 200.265C703.85 200.329 703.976 200.561 703.892 200.772C703.85 200.941 703.681 201.068 703.512 201.068Z" fill="white"/>
<g opacity="0.49">
<path opacity="0.49" d="M742.256 202.256C742.256 204.853 740.165 206.944 737.568 206.944C734.971 206.944 732.881 204.853 732.881 202.256C732.881 199.659 734.971 197.569 737.568 197.569C740.165 197.569 742.256 199.659 742.256 202.256Z" fill="#54C9E3"/>
</g>
<g opacity="0.49">
<path opacity="0.49" d="M736.914 191.549C736.914 193.766 735.119 195.561 732.902 195.561C730.685 195.561 728.891 193.766 728.891 191.549C728.891 189.332 730.685 187.538 732.902 187.538C735.119 187.538 736.914 189.332 736.914 191.549Z" fill="#54C9E3"/>
</g>
<g opacity="0.49">
<path opacity="0.49" d="M727.772 186.86C729.369 186.86 730.664 185.565 730.664 183.967C730.664 182.37 729.369 181.075 727.772 181.075C726.174 181.075 724.879 182.37 724.879 183.967C724.879 185.565 726.174 186.86 727.772 186.86Z" fill="#54C9E3"/>
</g>
<path d="M740.038 197.565C738.117 197.565 736.153 197.439 734.147 197.164C731.782 196.869 729.375 196.362 726.947 195.707C726.905 195.707 726.884 195.686 726.842 195.686C721.415 194.187 715.778 191.759 710.098 188.507C708.409 187.536 706.678 186.607 704.968 185.784C699.499 183.102 693.988 181.16 688.562 179.998C679.293 177.993 671.945 178.647 667.427 179.534C667.216 179.576 667.005 179.428 666.962 179.217C666.92 179.006 667.068 178.795 667.279 178.753C671.882 177.845 679.335 177.19 688.752 179.217C694.242 180.4 699.816 182.363 705.326 185.066C707.079 185.91 708.81 186.839 710.521 187.832C716.158 191.062 721.732 193.448 727.095 194.947H727.116H727.137C729.523 195.602 731.93 196.109 734.253 196.404C736.786 196.742 739.278 196.847 741.685 196.763C741.896 196.763 742.086 196.932 742.107 197.143C742.107 197.375 741.938 197.544 741.727 197.565C741.178 197.544 740.608 197.565 740.038 197.565Z" fill="white"/>
<path d="M731.298 182.551C731.13 182.551 730.94 182.551 730.771 182.53C725.555 182.403 719.981 181.453 714.217 179.701H714.196C712.211 179.088 710.184 178.392 708.2 177.632C705.476 176.576 702.71 175.668 699.986 174.908C698.128 174.401 696.249 173.958 694.433 173.599H694.412C686.875 172.142 678.619 173.113 673.699 173.704C673.467 173.725 673.277 173.578 673.256 173.345C673.235 173.134 673.383 172.923 673.615 172.902C678.577 172.311 686.896 171.318 694.56 172.796H694.581C696.418 173.155 698.318 173.599 700.219 174.106C702.963 174.866 705.772 175.774 708.516 176.85C710.48 177.61 712.465 178.286 714.428 178.898H714.449C720.15 180.63 725.661 181.559 730.834 181.707C731.003 181.707 731.172 181.728 731.341 181.728C731.573 181.728 731.742 181.918 731.742 182.129C731.7 182.361 731.531 182.551 731.298 182.551Z" fill="white"/>
<path d="M690.611 238.862L688.288 236.539C687.401 235.653 687.401 234.217 688.288 233.33L689.323 232.295L694.876 237.848L693.841 238.883C692.933 239.749 691.497 239.749 690.611 238.862Z" fill="#3163D3"/>
<path d="M599.207 182.345L619.963 211.241L630.372 203.764L609.617 174.868L599.207 182.345Z" fill="#FFA015"/>
<path d="M577.587 152.276L465.64 232.699C461.882 235.402 461.016 240.701 463.719 244.46L515.068 315.952C517.771 319.71 523.07 320.576 526.828 317.873L638.775 237.45C642.533 234.747 643.399 229.448 640.697 225.689L589.347 154.197C586.645 150.439 581.345 149.573 577.587 152.276Z" fill="#FCAD3A"/>
<path d="M574.504 154.496L476.429 224.954C472.671 227.656 471.805 232.956 474.508 236.714L525.857 308.206C528.56 311.965 533.859 312.83 537.618 310.128L635.692 239.67C639.451 236.968 640.316 231.668 637.614 227.91L586.264 156.418C583.562 152.659 578.262 151.794 574.504 154.496Z" fill="#FFA015"/>
<path d="M577.586 152.275L479.511 222.733C475.753 225.436 474.887 230.735 477.59 234.494L528.939 305.986C531.642 309.744 536.941 310.61 540.7 307.907L638.774 237.45C642.533 234.747 643.398 229.447 640.696 225.689L589.346 154.197C586.644 150.439 581.344 149.573 577.586 152.275Z" fill="#FCC12A"/>
<path d="M498.704 293.09L504.518 301.184L548.83 269.354L543.016 261.26L498.704 293.09Z" fill="#FFA015"/>
<path d="M473.217 257.64L479.031 265.735L523.344 233.905L517.53 225.811L473.217 257.64Z" fill="#FFA015"/>
<path d="M536.667 283.602C535.59 283.602 534.513 283.095 533.838 282.145L525.54 270.575C524.421 269.012 524.78 266.837 526.342 265.718L533.289 260.735C534.851 259.616 537.026 259.975 538.145 261.538L546.443 273.108C547.562 274.671 547.203 276.846 545.64 277.965L538.694 282.947C538.082 283.391 537.364 283.602 536.667 283.602ZM526.173 270.131L534.471 281.702C534.893 282.293 535.506 282.673 536.224 282.779C536.92 282.884 537.638 282.736 538.229 282.314L545.176 277.331C546.379 276.465 546.654 274.797 545.788 273.594L537.49 262.023C536.625 260.82 534.957 260.545 533.753 261.411L526.807 266.394C525.582 267.239 525.308 268.928 526.173 270.131Z" fill="white"/>
<path d="M511.479 248.535C510.402 248.535 509.325 248.028 508.649 247.078L500.352 235.507C499.803 234.747 499.591 233.818 499.739 232.91C499.887 231.981 500.394 231.179 501.154 230.651L508.1 225.668C508.86 225.119 509.789 224.908 510.697 225.056C511.626 225.204 512.429 225.71 512.957 226.471L521.254 238.041C521.803 238.801 522.015 239.73 521.867 240.638C521.719 241.567 521.212 242.369 520.452 242.897L513.506 247.88C512.893 248.324 512.175 248.535 511.479 248.535ZM510.085 225.837C509.536 225.837 508.987 226.006 508.523 226.344L501.576 231.327C500.985 231.749 500.605 232.361 500.499 233.079C500.394 233.797 500.542 234.494 500.964 235.085L509.262 246.656C509.684 247.247 510.296 247.627 511.014 247.732C511.711 247.838 512.429 247.69 513.02 247.268L519.966 242.285C521.17 241.419 521.444 239.751 520.579 238.548L512.281 226.977C511.859 226.386 511.246 226.006 510.529 225.901C510.381 225.837 510.233 225.837 510.085 225.837Z" fill="white"/>
<path d="M511.73 283.729L517.568 291.858L536.895 277.975L531.056 269.847L511.73 283.729Z" fill="#FFA015"/>
<path d="M486.245 248.266L492.084 256.395L511.411 242.513L505.572 234.384L486.245 248.266Z" fill="#FFA015"/>
<path d="M574.942 155.089L569.643 158.895L630.407 243.49L635.706 239.684L574.942 155.089Z" fill="#FFA015"/>
<path opacity="0.4" d="M632.039 223.599L512.195 309.702C511.837 309.956 511.499 310.251 511.203 310.547L515.088 315.952C517.791 319.71 523.09 320.576 526.849 317.873L638.795 237.45C642.554 234.747 643.419 229.448 640.717 225.689L638.141 222.1C636.705 221.889 635.227 222.058 633.834 222.607C633.2 222.86 632.588 223.177 632.039 223.599Z" fill="#FFA015"/>
<path d="M673.74 291.605L609.3 347.072L587.067 347.262L509.789 347.895C509.789 347.895 530.185 285.503 654.167 227.588C668.482 220.894 677.604 234.703 681.172 243.571C681.911 245.429 682.481 247.604 682.861 250.011C684.993 263.397 681.552 283.688 673.74 291.605Z" fill="#FC6B4E"/>
<path d="M674.352 289.772L609.299 347.076L555.881 347.751C555.881 347.751 619.223 222.144 670.952 240.429C670.995 240.45 671.037 240.471 671.1 240.513C679.715 245.137 684.719 254.49 683.684 264.203C682.607 274.422 679.398 284.662 674.352 289.772Z" fill="#EB6449"/>
<path d="M532.508 311.856C529.488 313.735 524.442 317.113 521.359 318.929C582.991 334.215 647.516 316.754 647.516 316.754C647.516 316.754 647.516 316.754 652.689 305.057C612.699 323.194 549.737 314.432 532.508 311.856Z" fill="#FFA015"/>
<path d="M667.722 219.524C667.722 219.524 672.895 234.198 687.021 242.644C684.572 248.091 682.397 251.617 682.397 251.617C682.397 251.617 659.53 240.87 657.355 226.745C664.682 223.261 667.722 219.524 667.722 219.524Z" fill="#FC6B4E"/>
<path d="M633.793 234.073C644.139 233.883 674.649 235.614 683.854 261.458C688.457 258.333 689.323 251.872 685.67 247.649C679.42 240.407 668.167 227.211 647.222 225.099C632.041 223.6 634.722 227.654 633.793 234.073Z" fill="#FFA015"/>
<path d="M745.613 402.221C744.684 402.031 744.03 401.165 744.156 400.215C744.283 399.223 745.191 398.526 746.183 398.653C753.489 399.603 758.577 398.822 761.343 396.33C763.053 394.789 763.877 392.53 763.792 389.574C763.687 385.161 761.533 380.98 757.902 378.088L701.253 333.22C700.471 332.608 700.345 331.447 700.957 330.665C701.569 329.884 702.731 329.758 703.512 330.37L760.161 375.237C764.637 378.784 767.297 383.978 767.424 389.468C767.53 393.522 766.305 396.731 763.771 399.012C760.203 402.242 754.122 403.319 745.719 402.242C745.677 402.242 745.656 402.221 745.613 402.221Z" fill="#493136"/>
<path d="M745.402 365.144L732.015 379.692C732.015 379.692 681.764 362.674 661.748 346.289C652.605 338.794 649.776 331.446 660.924 325.893C665.379 323.676 668.8 321.29 671.65 319.158C682.587 310.944 684.952 306.257 703.511 328.152C726.885 355.77 745.402 365.144 745.402 365.144Z" fill="#FFAB6D"/>
<path d="M695.488 319.41L655.646 340.207C650.198 333.556 650.093 323.168 662.339 320.888C667.237 319.98 671.186 318.629 674.5 317.341L695.488 319.41Z" fill="#D35E0D"/>
<path d="M751.081 404.059C748.442 404.059 746.436 403.742 745.95 403.679C744.198 403.383 743.015 401.715 743.311 399.963C743.607 398.21 745.275 397.028 747.006 397.324C749.518 397.746 756.782 398.147 760.35 395.128C761.828 393.861 762.546 392.066 762.546 389.638C762.546 377.835 748.843 371.712 748.716 371.649C747.09 370.931 746.351 369.052 747.048 367.426C747.745 365.8 749.645 365.04 751.271 365.758C751.989 366.075 768.986 373.57 768.986 389.638C768.986 393.967 767.423 397.577 764.488 400.068C760.603 403.341 755.093 404.059 751.081 404.059Z" fill="#3163D3"/>
<path d="M730.474 378.106C730.474 378.106 740.461 385.876 750.532 385.201C755.367 384.863 762.842 384.356 764.108 383.216C764.784 382.604 761.532 381.907 760.793 381.801L754.459 380.429C754.459 380.429 759.949 380.345 769.112 383.005C769.894 383.237 770.59 382.35 770.041 381.823C764.805 376.544 757.225 377.262 757.225 377.262C757.225 377.262 764.151 375.594 771.372 380.577C773.04 381.717 772.934 379.859 772.744 379.416C769.091 371.603 758.703 372.575 758.703 372.575C758.703 372.575 764.657 373.039 772.744 376.016C773.272 376.206 773.758 375.636 773.462 375.172C771.414 371.751 765.037 365.501 738.37 366.156C729.883 376.924 730.474 378.106 730.474 378.106Z" fill="#FFAB6D"/>
<path d="M742.508 364.448C742.508 364.448 756.148 362.695 759.674 365.546C763.2 368.396 761.384 368.776 758.85 368.734C756.337 368.692 746.498 372.577 746.498 372.577L742.508 364.448Z" fill="#FFAB6D"/>
<path d="M651.316 336.599C651.316 336.599 622.897 259.469 651.042 246.062C692.594 226.257 696.184 319.201 696.184 319.201L651.316 336.599Z" fill="#FC6B4E"/>
<path d="M695.679 313.748L653.244 329.51L653.524 330.263L695.958 314.5L695.679 313.748Z" fill="#FFCEC4"/>
<path d="M695.437 310.055L658.461 323.784L658.74 324.536L695.716 310.807L695.437 310.055Z" fill="#FFCEC4"/>
<defs>
<linearGradient id="paint0_linear_23_735" x1="409.643" y1="561.829" x2="244.77" y2="213.468" gradientUnits="userSpaceOnUse">
<stop stop-color="#FDD3B1"/>
<stop offset="0.2302" stop-color="#FDD7B7"/>
<stop offset="0.5455" stop-color="#FEE1C9"/>
<stop offset="0.9088" stop-color="#FFF1E6"/>
<stop offset="1" stop-color="#FFF6EE"/>
</linearGradient>
<linearGradient id="paint1_linear_23_735" x1="990.381" y1="247.028" x2="1038.4" y2="629.431" gradientUnits="userSpaceOnUse">
<stop stop-color="white"/>
<stop offset="0.2244" stop-color="#FEF1E6"/>
<stop offset="0.5343" stop-color="#FEE0C9"/>
<stop offset="0.8035" stop-color="#FDD7B7"/>
<stop offset="1" stop-color="#FDD3B1"/>
</linearGradient>
</defs>
</svg>
